<mxfile host="65bd71144e">
    <diagram id="VykENZT51a8kMr_8xr5x" name="Page-1">
        <mxGraphModel dx="832" dy="513" grid="1" gridSize="10" guides="1" tooltips="1" connect="1" arrows="1" fold="1" page="1" pageScale="1" pageWidth="827" pageHeight="1169" math="0" shadow="0">
            <root>
                <mxCell id="0"/>
                <mxCell id="1" parent="0"/>
                <mxCell id="5" value="" style="shape=image;verticalLabelPosition=bottom;labelBackgroundColor=default;verticalAlign=top;aspect=fixed;imageAspect=0;image=data:image/png,iVBORw0KGgoAAAANSUhEUgAAAkgAAAHgCAYAAABeuZKxAAAAAXNSR0IArs4c6QAAAARnQU1BAACxjwv8YQUAAAAJcEhZcwAADsMAAA7DAcdvqGQAALOySURBVHhe7L0NYFTVnff/FTAjaGZCE3kZkpCAErAhYI3SJUwoUjFUou6K8WWgFug+gv+nVXer7NOi66K7+6DtUvRZsNsFtTDSBmzBYEEtUBLCisZiSKqGqglJiIqJeRkFk/ryv98798IwJJO5587khfw+esncl98959zz9jvn/M455yUnJ38FQRAEQRAE4RSDjL+CIAiCIAiCgShIgiAIgiAIIYiCJAiCIAiCEMLgESNGPDRkyBB88cUXxqXIodwFF1yAL7/8El99Zd2U6cILL9T/Ut4qQ4cOxeDBg5Vkzz//fMTFxSn5e9CgQRg2bJj+W8Vthvm8885T+t4Oh0P/5vSzVX9TjvIqsvSvnTBTlt9NRZbxxPhSjSumE8r1dFwxXzB9qnzvaMSVapjNuFJNn6pxxW9lN66Iiizjyk4ZqBpX0UifduNKRba/xhXDaydf0d+qYWa+slOW2EmflO+NuOqvdXRwXGnvGqSfqEA5yqtAWX48VSir6m/6WdVtM8xWI83EbpjtfG9VWcKMZifMduJK1d+Us/O97YSZbvdGmOkm/a2Kne9lJ41FI32q0lt5kmnLjtt2vhdlVdNnb8eV3TypIk85uq36zeyE2U5cEcrbKbtVsSurKm+mT9UwB8fVeampqdp7rGvUxIw4Fc2W0COUVXGbH49yKhoi/U1UZM2Pr6LZEjthNiNdVZaohJlIXFmDYVZ1l/7m0VtxpepviStr9GaY+3NcUU7V3/01riinKku/020VBnpcyTR/QRAEQRCEEALNCEEQBEEQBOEUoiAJgiAIgiCEIAqSIAiCIAhCCKIgCYIgCIIghCAKkiAIgiAIQgiiIAmCIAiCIIQgCpIgCIIgCEIIoiAJgiAIgiCEIAqSIAiCIAhCCLKStiD0INwsk0vwczl8QbADt1L47LPPlLZTEAShe0RBEoQegHsDJSQk4PPPP0dHR4dxVRDUoaLN3dbb2tp0RUkQhOhy3tixY78yN7Oz2hKhHDd2Y6Gv0oo5//zzdXdVNqSju3RTZRM+VlY8VMPMgklFltjxN90lKpvwmf6mrOr3VpVlPFOup+PKjiyJRvqkLP9SOWptbUV7e7vxhCDYh3na7XajsbHRUv6inGq5zzxF+f5a7tNdq25Ho/xU9beduKIc3ZY6OnKC/T3oggsuAA++1Cr8eEOHDtU9YxW6d9FFFyEuLs64Yo1hw4Yp+5vDHKr+pgz9zbCrEB8fryxLP6uGmd+Z34yJzip0j/62E1f85ir+ZngZbhV/U8ZuXKmG2YwrwjTDQ5QjIdqwEG9paTmV1iKF+VG1LGFaZp5mRaKC3TKQflcpD+yUgZSx4287ZQnjSTWu6F/Vuo7u2Sk/e6uOjma5P1g7eeivf/2rkoZoalk8VKA83VbR8ijDoQoVWUKNWtXflKO/VTD9rQLjiP5WjSs7YaZ8b8SV6W876ZPyKtj1t5mvmFF5fPrpp8ZdQYgerERYoVhVwO2WgXbylZ2yxMxXVqEs/W0nzHbKfdUGUm+G2XSbf61C//ZGHU2FLFpxJTZIghBj2BqhrciHH35oXBGE6MGWtmmLJAhC9JBp/oIgCIIgCCFID5IgxJhIe5A4Zp+amqo/m5iYiE8++eSMbnl2G7/33nvSUyCcgfQgCUJskB4kQegjpKen6waC7777rm5XUlNTo/82D1aA48ePN54+k3krN+OF51/Qj+d+cT9mGtcFQRAENURBEoQ+AmcFVVdX67OSPv74Y31ZAP42j2PHjum9TJ1x8dhxQMV1uO76+3Dwazfhh/9k3AhH6mN4+YVHjBNBEAQhGFGQBKGPwGG1GTNmICcnR+8pmjZtmv7bPHjP6XQaT3fHTDyw5SDKXy9H+R824/5Z2qXpj+C5khKUHDiIzff+PR775RwkJ1+DF356U0BEEARBOIUoSILQR2CP0cGDB/Haa6/h6NGjOHTokP7bPF599VWcOHHCePpskqdziO0xTPv4OTyOH2LeF5sx5YopuG5vHPIX3A5MGY/k9j/juafXYGvpTtz37CG01b+M6370nPEGQRAEwUQUJEHoI3DdD67dwbVD+Jt/Q49wa8/UH+AQ23W46c5HsW/YBUB7a+C6vwMY4gBeeBJrdjVi3NXLsHThVP2eIAiC0DmiIAnCuch/b8Vb45bi5edfQMmtTux7+ilg1m1Y9nfTMD6Jq8RqCtPeN1GfNBObV84LyAiCIAinkGn+ghBjIp3mP2XKFN0Qm/tq0f6osrLyjNW3uVpydnY2SktLjSvdc9msmZoitA9vGudInYaZo45h36v1xgWhvyPT/AUhNkgPkiD0EbjEvbkOEqf7c8Yaf5vHyJEjcfLkSePpyHgzWDkitQdFORIEQYgA6UEShBhjZaHIcePG6X+/9rWv6b1HwQtF0j6ptrYWTU1NxhVBkB4kQYgVoiAJQoyRvdiEWCIKkiDEhsGagvQQbRs4O8bqrruU47oslLO66y533E1KStJ/q+y6O3z4cH2HdBV/m0MXlLW6QzIX86PbdDPcjKKuYJgZdpUwc9jlggsusBVXDK/VuBo0aJC+Ro9qmM24Ugkz44kH/awSVwkJCUphJhdffLH+V8Xf/NZUjPi9+P34W3bzF2IB8xbTl5Xd4lmWULFSyVd0y+Vy2cpXqmUg8zPd54xOq5jlvkqYubI9e3X7a7lPOatx1Zt1tFnuU1al3I9WHT1Y+3gPMbFZ9QThSyjHF1n9ACZWbSqCob9VMijhh1P5eIRhtlIYhfLZZ58pfS9+b7txpVKwmNDfKtBtyqr4m9iNK9X0afpbVZbuMn2ycBUFSYgVKgoSMdOnCpSzk6/CrefVHQynSllCv5r+VoHy/a3cJ3bKQNIf6+hoxZUMsQlCjGHlxdaQDLEJsUCG2AQhNsgsNkEQBEEQhBCkB0kQYgx7kGj/oNq1Lwjh4FAA7S6kB0kQoosoSIIQY0wFSRBiAW08aKciCpIgRBdRkAQhxlBBop2IqpG7IISDyhHTmChIghBdxAZJEARBEAQhBFGQBEEQBEEQQhAFSRAEQRAEIQRRkARBEARBEEIQBUkQhB7j7g27sf4HxgkpWI2NP5tvnAiCIPQdREEShD4M954KB/daSk5O1vce6it4123D2tuMkxC2/OeDWPc744QMdsAxzGGcCIIg9B1EQRKEPgqVo0svvVTfJLMzuIHlFVdcgUWLFuE73/lOt8oU94QbN26cPiWcfyPjG9i4YxsKX9qN/S9tw+qFbrgXrsa23fuxf99uFP77fLinrcDGnTuxU3tm/YaNWDbVjaxFa3G38YZgpt++FN7pbnif2KnJ78dubwbijHsDgxR45mXCaZydiRMpKeYd7TmvF15vPjJdxiVBEHoUUZAEoQ9iKkctLS246KKLjKunoXL0jW98A7Nnz9bPqfBcd911XSpJVLK4izrfxb9cl6krxetMBsMxuBqb5szGjCeqMTH/QTxwezqqfjwDM2auwbGpBVicmQ53+9t43rcO2/9zOXbV+XH4qbuwxnhDMOwtcmTehwUph3HPzBlY+GKDcWcA4MpEvjcXqa2t4IpFzske5M+jEuTR1CEnMuflIzc33zg3cWJ459qUIAgxZpC50eGgQdZ1JS5vzwKXu0lbhYubOZ1OfYhABbpLv/M9VmHlwjCzRW0VytDfKmEmlKX7KnA1Zh4qYaZ/+2Nc0U2GWTWu4uPjIwrz6NGjMX78eN2v/M0jKSlJd5+KhHmNSsuECRNOnY8YMUKXZ14wr6WmpmLSpEm45JJL9HPKR+L/zMxMZGdnY+bMmRg1ahTq6+v1b/b+++8bT5wmKyvrlHJkQiWJPUmducVrDAt39uZfbk9h+Zse70D7kAsQp4m1H+OFBnS0xyGufAPW7W5C2swlWHxLlv5oWDT3475s16S1N3R0BK4NBForUeQrQnmLca5RXeKDr7gZLlcbKncUo/xwEXy+EtSluNC8Q7vnK0aN8Ww0sVPuMz8xXzHNq2CnDKSf7ZQllFfxN78Tw8zeVxUoqxrmaNTRduKK302Fc6GOHsSC8vPPP9dPVKA8l7q3CuVUZQkLelVZukt5HlYx/awiSyiv+r1Nf6tgytr5ZnZkGWb+tQozl2pckUhk2ety4sQJ1NbW4tNPP8UHH3ygH9w7jbLNzc2nrr377rt455139J35ef7RRx/p7+C3MZ+hYlNXV4djx47pz3388cfdfjsWJO3t7SgrK8O+fft0myIqRkeOHOl0D7euCp2uClE+zwKD/mBhyb8RF1zxWVj220JsezgbHWX/DxtKOpDzy0IUbluFrLotePLS+ViSn430r7HyiMPhug5k3LIKiwLSZ/OGD3vbc7C+sBA7b8rAwLVAakZrq/FTRzsZyx6kfGS2tWK43ruUi6kJ0e9CspufKauSn03s1DmqZQH9G0l50BV2vhmxU+6ryjKPm+FWwU6Y6aadNKYaV6af7YTZ/N7naa1d7TygrFjFLGBVZAkLc9VA2HGbsjzsuN0bYaasnbiyE+bejCsSK1mGa+TIkbpiE/pctMIcyVYjVNLYYqJSRa666iq8+uqr+u/OYAvH4/Hgm9/8pnEFOH78OH7zm9/ow3KhsBfLNOSmgkS/+P1+XXkLz5UoLLwWBf+wBRmoQlW9cTk5GzkjG1D6ujFEFnpOlqxC4bfTjRONup0ouP8p4wRwT8oA3qrSe5IEdZjWrG41YrcsISqypDfLEh523LYTZtXvLXFlHbtxZbore7EJQoyJREEiHF775JNPdEWJPVBUeMIRrCSFU45MONzHnjJ29/M5utU9l2HVo9OwPEixEfoWrAysKkiCIHSPKEiCEGMiVZCI1ZYP7QOoKFEunHIknLuIgiQIsUFmsQkDGhr0uVx9Zx611W5h2i21traKciQIghBlREESBjxsfQuCIAhCMKIgCYIgCIIghBA1GyTaQUhLXIgGHGbi1PZIbHbswjTrdrtRUxOL1WYCWLFBEgSriA2SIMSGqChItOFgpcYZMqpT6wTBhAU+FW5OR4+1bQ0rFu5l9t577xlXoo8oSEIsEQVJEGKDbQWJqxxTKaKhqCBEE0535yytyKajq8GKhWsEcR2kWEE3qPAJQixg+UslSRQkQYguthWkxMREfQ0WOyuMCkJnsNDn8Je5WnUs4Cw2KkixdIMKktmQEIRow0XtREEShOhjW0HixpcNDQ1S+AsxISUlRd+uI1b0lIIkQ2xCrJAhNkGIDTKLTRjQsPXd2NhonAmCIAhCAFGQBEEQBEEQQjgvPT39K3bRcvdaqxvDcXiCNkgcYgsny9lImjv6XlBOp1PfDC50k0zuXM6d0gUhmNTUVDQ1Nenp0+owrjn0QNmubOTCDbHRsJpyne2m3x10l/6l29xFX4bYhFihMsTGNKla7rP8pnvMFyq2p8xXdJeHVThpg/6lrNXygPUQ8zv9rRJmfjO629NhthNXDC/lOzo6LMuS3o4r+jsW5X44gsM8iC/iB1SBHuHRHVSMaKt08OBBvP3223jnnXf0ncrN47XXXtN3VOfRGTN/9CRe2HsQ5a8fxAu/uB8zjevCwMAsIKzCDMZMqiJLqNSwYFSBflb1tyDEGqZNVkIqmAqSat5gvmLeVIHuqvrbVBZU8yTLEtUwU1bV33bqaFOxU/U3lQVVWTtxRTkeKm5Txk5cMcymvwexVXvy5Ekl7ZLaWSTaHfeL4lRtamSmRklZ8+A5/UFt8SzueBqP3HABnv/BNEy5YhGevyAfj6y9ybjZwyx5Gi8/s8g4EXoCpi+mH5X0SRmm7XCtCBaaXRXWTLOdpskIoJ+ZplX8LQixhulTNV8xP3HNO5bbKtjJV8zP9LfVXgXCniPVuo7u2QkzZVXDbKeOpn+7KwPD8emnnyr1oBP6m4dKXPFbUVbF3/xOduKKYWYaIz0yi23ixIn4xje+gWPHjmH48OG6Zsdhk2DYy/TKK6+ctaLxPb8uwbQDHtz2uHEhdRpmjjqGfa+OxwNbHsX8cRcAzW/C96+34VHPcyjJdSJu+Ah0HHsTbUmXIXnwOyi69yasOPAAntubC+ewERjRUY8325Jw2SjgnRd+iJsevACP/PZR5I+9AJ81/g+e/PuleOp7p9+Ft57CTQvi8NjrizAVbTi4eRr2XfoyFk+4AHEnXsGj192H5wzvCdEl1rPY2MrpawtFxsfH63nE7/fHTsFKXolt/9GBGwseMS4EEe6e0OdgjwjTmMxiE4TootYHZRHaGx0+fBj79u3DoUOHUF5erv8OPjj01tlik0nD4tAefLn2oKYc1QP/9EPM+2IzplwxBdftjUP+gtsBh6bgVKzAtCueQn18O7ZOn4Kfv52My6+joAMXfPEWVkybgqeOOdH+22mY8vhbSL4iX3/XNRe+hZf+8BLewt9g/vf5uPmun+OtS6/BUjyK23a9h7bKJ/G9n07DZWlOHC/ZhDWbX9FkhP5MzJQQBZKSkjBixAi9IUHFLdJu4vk/K8S23+7E7t37sfOZ+5Gj/Xf/M7uxf99+7N+2Hnd7vFi9bSd27tiNwocfxMrHr4bbPUv7fb3xBpPrT9974nGs36HJJmuXp61E4bZVWNmJOys2BdzZ/dvVGCwjit2QAs+8TDiNszNxag0C8472nNcLrzcfmS7jkiAIPUqPKEh2KDrShklXLwLLaJL8w80o+fU9wLALYGpO9f4OYIhD/91x4qD2byvaT+inZ9LeBv2u9hfBvW98V/O72Fe6Dy899xR8ewOXA+/qjIN4avUGvOG4HN47b8c846rQ/2AXLrtU+wJUjrh6OHtRebCbOFIlyTEsHv4DSzB7dgH2Dp4F75NLce0XWzFj5gwU7I9D3t9fg/RhjSjdsg6Fr/4GD245DH/DXhQ88LzxBpPnT9/7wQ+xvcqNWXdm4/rbstC+fw2qOnFn1rAq7PnjHlThSs2vxmuEs3FlIt+bi1StIci+HudkD/LnUQnyaOqQE5nz8pGbm2+cmzgxvHNtShCEGNPni7ODP3oEO4YtxXMlL+CFF0rw3K1xeOkXPwf+eyveGrcULz//AkpudWLf008ZEgrwXWPm4e7vL8Oy73lwWWD48Wxer0PHxNvx+LJpuP1/LcacTK1Yo/lKauC2IKjCIRIqSPX19afG3bk+E8fiu5q80DkNYHsBDq3BwIYAr/DCp+VY85sKxF1egCXz8/TrkfD86r3wZ6/A4kuasOenDcZVEuROSw0OvHIAe7b78KWtAftznNZKFPmKUB60vWB1iQ++4ma4XG2o3FGM8sNF8PlKUJfiQvMO7Z6vGLHbRlkQhHD0iA0Shwx4VFZWYuzYsbqFeOiU/qlTp+Lo0aNobm42roSQOg3XjPfj5b1vGhcCXDZrJrB3H868qobVd0XTbaFzemIlbfbaxNJ+IxIbJM66YN7gDM/gIT/a5tHGhHksHN51O7FsvKa2aJVvYvzb2PD3Zcj55WK4W5rgSARKf3MYGbfkwMH7J3dh4U+AVc/koWP3Giz5t13GWwyS78bGoHvedbtxc8uDuPH/lHbjTjvm5S3EF31nxLIP4kTmZBcqK+rgnJwJV0WlpgxlIrOtEpWtgV6kKZqyVL7jDQyfl6u3vdo0pamoouv0KTZIghAbekRBYiHPdZCoALGVzGmH/G3CaXVjxoxBdXV1TCtDof8RawWpJ4jUSJt5ic+xF4lKkjnkxskN3c3I8K4rRE5xAda8kYGqt6qMq0CGJwcoKUXgSgZyPJqyVHL6PpCHFf+1GFnxxin8OPyrJXhkp3GKRVj/0tWoWrwQj9ZH6o7Qk4iCJAixocf2YuOmo6NGjdJb7LSpoH2FCTM3KwVRjoRQeqIHiUoJpx7HikgVJML8RKXIzE/BQ27hyPvxKmQfWh6k2ESJgpVYm1GGux4O2CrFzB1BGVGQBCE2yGa1Qp9mIG5Wy2n+9BcrvL40w07om4iCJAixQeacCEIfg+sftbS0iHIkCILQi4iCJAxozCE2QRAEQQhGFCRhwKO6X5AgCIJw7iIKkjDg4V5FgiAIghDMeampqV/RwFrFyJrGgZyKzMXs+Nsqpoyq28SOLLEqb0eW9Mcwk572t/ksl4A4fvy4srs8KNuVfDgjbc62DCcbjuAwWzXSFgQrMK1ZNdK2m7a7y1fhiIbbKvZ5lDPpaX9Tlqj4OxrlEOnpMPdWXJnuqvo7OK7Omzhx4ld8GbdbsBoQZkruGRU8ZV8QogmnvDNtspfH6u7MHDq76KKLdFlzd+ZQwilIiYmJuqxK+uZMNGZOytIfVPQizazMj8ykzI8qGZxhsiNLOZVCzSxYKG/V7f4a5r7gby4DQT9YUZCYryjPvGV1x3SuY8d8RVmVHeqZr5gvVHpuXS6X7l/KW40vNlLod7prdYd6fiun06nLqjR0WMZQTqUs4bdmOqOs1bjiArQMN+PKapjpJv1NWZUwM65YZtPfVtP3sGHD9HKTsirlPstfynZV7ocjuNw/Lz09XfN7IJNZDQQTDV/W2SazghANqIBTeVGpRFhpsEBkId6VLNMw6azgMXt9rLpL2Hign5m5+ZsZXhBiAdMuKzMrChLzBWH6jEW+CgcbC6y4VGRZ4dPPVhUFwoqT30k1zMzHDLNVxYwwzKqy/Nb0r2odzYPKUX+KKzvpk3FMt+3ElRnmqKyDJOtvCLEiISFhwKykLQgqsEJgGpNyWBCiixhpCwMatq6o5AuCIAhCMKIgCYIgCIIghCAKkjCgoW0BD0EQBEEIRmqGPsXdWP/Seu3fIApWY+3K640TIdrQfoMzegRBEAQhmF5TkGi0yumLXcFW/fjx4/Ujkha++QwrvL6Od902rL3NODmDLVj38Drt3yAGOxB3QcCiXxC64u4Nu7H+B8aJIAiCYJtemcVG5WjSpEn6OgNvv/22cfU0VHauuOIK5OXl4ZNPPkFpaSnKysrCTtnTwqFv8MmFKz/44IMIZgwNgveJF7AsKx74vAG7HroH1TeuxeLsJDjaG1D6X/dg+bhV2Dk9HnHDk9DRUAV/Ygbcg6ux68fbkXjPAqQnxCMpzo/qegfcafHoOLQOc59Lx8YH8pDuaEdj2Qbc9Y9jsGrHdMQPTULSF1Xw/VFTkPInA/4ybJlzF9YYvgkwH6ufyUHpHY/B8cR63W/t/nbUv7kWd9z/nPFM38U5OR9TWopQUmdcCIK78tfVBW7wufwsJ1BbDF9nDwcR61lsNNLua7v5s+FAfzFfRTrF1X1FDtwfavmk3rggDBhkFpsgxIYe70EKVo643oC53oEJM7upHBFWFtOnT0d2dnanvUNcX2bUqFEYMWKEXtGZf7kOQliGxGFBymHcM3MGCp4uQ8fVD2DB+Cos185nPHEMWTct5kIOaH/rEcye6UNDfDu2z5mBdUfcyJrjgGNoE16cOxv3vArE1yzRntkF/+QcPHnnLMRX7cGeP1YB2TdgMeLg+LwKj8zWZN9Nwywswa46Pw4/FaocEb5XO+bed8pvC19sMO71bVI8Xk3pAZpZRrsy4ZmXD6/XC09K4F5ubq52no9MV+B5HZcLmpokBEEFf+TIkXrDg0plpPZR029fCu90TcHevA3bdu7G/t3bsPGZndi9bz92/tyrtSC8WL1tN3bu2I3dm1Yg23M/Nu7cj93ac9t2bMT9cGsNhm3Yrz2/f+dGXD/ReLEQM5yTM6FlD0EQ+ig9oiCNGTNGV3qmTp2Kb37zm6ipqdEVpHfeeees1T25+qapHJlwVUwqSbzXGeZifuZqoXx3t7DV9WU7qH401LyNtz+JO3WO4x1od8RpVQbQcaJM+7cN7aGv7GjXrgJlJzrQ8flpJcYxGGg6egAHXtmD7c8WYi8vdvjBt+gE1iUMT7zjtN86rK9U2xvUlfjgK642zjSO7oPPV4zmBKd2rwjlh4u18yJUtjqRije03z4UlfeNBUa5GFlfgMoR7aGYP5g3uJore0YjUZIcwzTFenDXirt3DPD+7g1Yv7MMTSlZuHfRLHRsm4HZsx9DlaaYx1Epz/Brir2m3B/XGgF/803jzUJYUjx6I0D7AY/+Q/urNQy8Xk9A+UnJRP4889yJTP232VAYjqmn7mloDYt8ys7L1J7UnvXk6+f5k6UZIQi9QY8pSK+//jreeOMNfSjj448/Rm1trT58Fgp7fkKHVNhzROWnqyE2KlCUY28Te6QiMrr9awf2tudgfWEhtj2wDHnHt50+fzgLDb97MqAsWeS131fBPWcpFi9aggWeiehsofPDdR3IuGUVFhnnZ1HoO+WXnTdlaNVX/6O5Jbi7vw2tCexBYo9SG2oxVf+dn5uGzlXenoOrvDY3NxtnvQeHSKgg1dfXn1p5lnmFCj97SCOmC8UdI7IxfVYOJqIJfk0fpE4YF8cmQCLiqLRTKT/RgLJXNOV+1ybsf6NWFxO6oa4ENVR9JrtQw+HilDStAUAS2EGqMRwt5VrjwVeCOpd2R/+9D63OgNJTrTcsmvVnnanpgR5V13AjX1RjHxsSFTJ0Jgi9QY/YIF111VV49VWtSasxefJkVFRU6L+7Yty4cfj2t7+tDzUQKkzbtm3TNy0NhUNsHLZjJcIKhcNrx44d05cZj2QfllDbjejYcmQgxwOUllQZ512wZBUKv51unGjU7UTB/U8ZJ5pfJmUAb1UpKWrnCj1hg0TlOqJeR0UisUHicHNaWhqOHDlyRkOAjQv2jjY0hE8F3nWFyCneDvxtDkoL7oLvgUIUogAFD69A4W43tv+8HQvuSYe/yY+4RAfKHiqF+948pA9qQOOQeFTNWwNsXomcwU1oT4jH7/5lLp4pNV4uhCfFA29ajW5Pd8q+TlNTy3cUodKZicy2SlTqnaXsQcrHFFfgXm1qJlwVlahLCTzTmuVFrq5d1aLYVw6XpnRVVoS30SNigyQIsaFHFCTaBY0dO1Yv+Dls8Oabbxp3uoZKUk5Ojq4A/e53v+tUOTJhjxEVI+4Jx16k7ioTof8wkIy0mZf4HHuRmFfMITcq/FEZBpyUA019QulbmkL1xDbkvbccC3flYeN/ZKNs7kLdJk6MvfsfoiAJQmzo03uxMdMT9gYJA5OBNouN+YlKPofZWPEFD7lFleT5WPlgASbG+/H27x7Fg4Xd9HYKfRZRkAQhNpyXkZHxFY1Aw9n4dAXtfVi5cHq9IMQC7ubPtMmeR6u9KNy9m8oGZbsabmXFwqFccwmCYJi2qdSoDL/RLo5DY5SlPyJVkIjT6Tw1zT8mypFwTqGiILFnnmmM6dNqGjPtPCmr0nhlvmKe5GEV5itzJMJqfcVhbH4nyoZODuoOfivmS8pGmo+DYUOP30qlLOG3Zh2tEldm44yyVsPMdMXyl7IqYeb3on8pH+lyJSb0M8tNfm+r5b4ZV3Q3EjObUBhmylF+EB03t/a3ChOoipwgWIHpU0VRYNpkodRdwRC61IQJZVUyGKGbqvmKFR0Nx0U5EmIF0xbTp1Ulg1CGslYrXBPmKx4qmPWVir/NMKvkK7pnx99meaCC3biin1WG6Fl20V27caVSBjLM/GYqYTb9bSd9mnHVp4fYBCHWQ2xsYdHWJ5Z2a2YrTqUVJgjdIUNsghAbenyhSEHoS5gtFUEQBEEIRhQkQRAEQRCEEKIyxMYWOLt5BSHacOgg1rPYeKiOs0eCDLEJsUSG2AQhNkRFQaKluShIQizgbJtYKkg9ASsvzqARhFjAYWIq+aIgCUJ0ESNtoU/TE+sgJSYmhl2I1C5UkKjoCUIsoILEBqqUw4IQXURBEvo0A22hSEGwigyxCUJsECNtQRAEQRCEEERBEgY07EHi6ryCIAiCEIwoSIIgCIIgCCEMMAXpbqx/ab32bxAFq/Hwvd82ToSBBg1c/X6/cSYIgiAIAXpUQeImcKNHj9YNu2OHGyt/W4gVxtmZbMG6h9dp/wYx2IHzL+h8Ly7h3IdDbNwI8pxh7ips++0q5BmnOvdvxMb7jd+CIAhCRPRYzcDddakYcSM52nxQWYqI+57Gzm2F2L17P3b/djW8yW54f7YNu/ftx/6XCrFqvhvZP96InTt2YvdL67H6Z2txtfbMrM0rcb3xitNMh/f7Xu1f7R1P7MR+7R27vRkQ9Sg6OCfnw5NinISQknL6Bp/zer3wdvVwD0IFqa9tNXLRRRfp+cWS4rZwLbat8wI7N+Cx1RuwK7ih4HDwf0EQBMECgxxayclF7FQWemTlEokcC/tRo0ahrq4OH3zwAerr63UFKSIlKS4OqNmE2bNnYE3tRNzwwANYML4Ky2fOwIwnjiHrpsWYnOZG+zvPY9N/b4dv9RYc9jdg720P4nnjFafRKoqh2jH3PixIOYx7tHcsfDF2m5QOJFI8XuRnAc2caezKhGdeQAmiDsR7ubm52nk+Ml2B53VcLjiNn13B9MU1hEKVBZ53dgTD9Ellg2mc97hrf+gzXOS0tbXVODsTynL6tArMUzxC3esObpzLXlYeycnJEebLDKz/fjbcly3G2h/cgKXfvwHXP9xJQ8GzAhtf0hoW+3Zj28+8kKVdexfn5Ez0VhNBNX2SIUOG4MILL9T/qmAnX3G5DOZnlfqK+Z/yLBesQvfshJmy9LcKdupo+pflp5244ndTge6q+ttcGkUlfVLGTpiD40p71yClAJhEImsqR6yMCLd1oJLEHiUrgWg42Y44RxzivmyHrtYc70C7dv7GxnXYezwNM767GDdP1h8NT7zj1DsaYrjFxECirsQHX3G1caZxdB98vmI0Jzi1e0UoP1ysnRehstWJVLyh/fahqLxzxSQYpi8q2KEw81CZCD46K3RNRZz3uSAkj2BYWHZVAPAeezxVMAthK/L0Iwuk6upqVFVV6fmFPW/d57EqLPlDDfxvbsBdT8RpjYA4PP/A2Q2Fu++chfiqPdjzxyog+waZoRENUjxGr2kKPPoP7S97R72egPKTkon8eea5E5n6b7OhMBxTT93T0BoW+ZSdl6k9qT3rydfP8yd314ywDtMUD5X0bUeWsM6xI6sKZVXdZnjtum0nzHRflf4aV6phppyKEmxC2S+//FL/Pai9vV1fwE7lI/Al5ovCwSEMapLB8Jyyn3/+uXGla+InL8O2zduw6qoOlK3bgL3tOVhfWIhtD2eh4XdP4rKbluD6q9KRyPpxyF5UvZ+InA0rzrTDCKbQd+odO2/KgFpbRghHc0vwonVtaE1gDxJ7lNpQi6n67/zcNAR3KHUG0whXuQ5NZ59++ql+PfgIXYiRMg0NDfpCk7zP3svOFoTsapo/3YgkfXYGlRvmrUjzFZU7NhjYcDDdpF+Zd9ibFA3itTKj6egBHHhlD7Y/W4juc67QLXUlqKHqM9mFmpI6TSFK0xoAJIEdpBrD0VKuNR58JahzaXf03/vQaij91XrDoll/1pmaHuhRdQ038kU19rEhURH9BSDtlPtMnydOnNAnOKhAWdV8RT8zT6j4mw1z5stI6qxQ6J7dMKsO5duJK/qXYVb1N8tAVVm6y2+u4m8zzCpxRRk7cRVc7vfIStos/Dlc0NzcrB/BQ278iGH5ybMoHHQ77tmaAbxVFeg50nBfkQP3h6Uoq+/8nOT9eD0WTz5d+fkrNmDJv+0yzjSZSWe+U+h7DJSVtNlgSEtL03uOgguUMWPG6H+PHTum/+2S/NXYeU86Dj9bhvRrgYKCDbh700bkdezFmuosLEYB7qlZi/UL3fC3OJDYUYpvL3gEtjK/ECDFA29aDXyagkT7uvwsqjltKN9RhEpnJjLbKlGpd5ayBykfU1yBe7WpmXBVVKIuJfBMa5YXubp2VYtiXzlcmtJVWaEpXd3AFjPTmKykLQjRpce2GjGVJI7tUbOLSDkii/4dqwb9Hyxfb5wLA4qBtNUI8xKfY96gkmQOuVE5ip4heQZyPEBpSZVxLvR3REEShNjQo3uxUTlihcTCPyLlSBjwDLS92JifqBSxm5gVX/CQmyB0hihIghAbetROk+OKHBsU5UjoS/Sl9EhF7eOPP9YrO1GOBEEQeg+ZyCIMaDjc+8knnxhnfQMuO0BbPVGOBEEQeg9RkARBEARBEEIQBUkQBEEQBCEEUZAEQRAEQRBCiMosNtWFuwShO7g+UKxnsXGmXFNTk3El+liZxSYIVpFZbIIQG6KiIEnBL8QK7qlzLkzzD11JXhCiBZeE4NYMoiAJQnTp0XWQBMEq58o6SFT0BCEWmNsxSDksCNFFFCShTzPQFooUBKvIEJsgxIZB3E2fBzOZVSijIicIVlBNnxx24E79qrtKs9KhAqWCnXwlCLGG6dpOuW8nbTNPquYrytJtFVgOUFalPGBY7ZQldsJMP/dmXKmG2fS3CvxWqm5HM64GcfsPHiof0M6HF4RIYPqi/Y5KYqcMh7bCFUwcnmhsbDTOzuTCCy/UM4sK9DMVLEHoi7DMZxpVLfeZr1QrP26loypLP9PvKuWB2ZOrWpawPLATZtXywE4dzfKruzKwK+ieHX/TXcqq+JtyqukzGnFllvuDnU7nQ5yFZo5jW4UfgVuICEIsYIHGlaVV0idnVnKlbNUVqSmvOkOT/qW7/Gu2hmRlbCEWsBJhGrNSDptpW7Xc7618RZmOjg7l8oB+pt9VoJv0twp02049qRpXdsNMeTtloJ14NstPqzA/UDYa6VNskIQ+TaxtkHoCs+UqNkhCLGCFwDQm5bAgRBe1QTpFXC4XRo0apStVMWXhWmxb5zVOusHKs4LQ55mP1c+s1v5V5W6sf2m99m947t6wG+t/YJwIgiCcg/RYD1J8fLyuHHG4hGN83LG8paXFuBuGGT9G4b98B+4hgP/wOiwpHINVD1yPdAfQWLUFj/2vY5i/eQHSE+KRFOfHnp/vxZgfeTEZfpRtfRAN01YiL8WB9qbXsOGHpch+rPNnNz8+G6ufM9wU7OHKRKazEpV1xrkNemIWG8esVbvOI8FqDxLHz+kvbqJrvYvZi7WFOSgtuAs+44o13Mj2uNFQUoYG48opkldi23904MaCR+C+IgfuD0tRVm/cE3oN6UEShNjQIwqSqRzV19fj5MmTembW3I1ISfrBMy9h6oE5WPKL63H3jxPhvmwBkkpma+du3L9pPdKe3wTcfjUqblyC7f+yDRu/tgmzjxdgt3s7Zh/Jw26PH6UVjUiafDWSytah8aounl2mVp2cuziR6UlFbUklMNmD1NoStGZ5kZsK1Bb7UNKWCY8nHakuoHxHESqdHngDN+E77DLuOQPP1qXA482F9jYU+0pQl5KJ/ClT4HQZ54aLnTHQpvknJSVh+PDhur9OnDih55lIlCT3wrVY//0sxLf70X6iGhtu9CF9U1DjYH0T8v53DpIGx6Fh+0I80LYi8Dza0fCHB1GYsBQF7iS4O2rxGk6g9I5S5LDhoeXd+PgONBT9AdXT/xZ5I9pRs3cNCofdjJyDy1E2bS0WZyfB0d6A0v+6B8vHrcLO6fGIG56E+uL/xB0PbDZ8KITinJwJV0Vl2PQfCaIgCUJs6JEhtpEjR55SjgiN7HjO691Zmsdrt9tP8FcZqt5swqDB5nkD/B3aH4d2dLSDRUPD59qFIbxgMFT73VKDA68cwJ7tPhSWaNe6elYIoQ2Vh1vhcqVoik05KltTkKbpPyQhwRn4cXQffD5NOWoFUhKaUeTzwVej/T51rxjNfDYlTXsHSdDex7/D0VKuPduNcjTQoHLE3tXq6mq8/fbbukLFhkT3s25G477b3Th8/wzMWLwr0PNz71LMGlaFPX/cgypciRsK0uFufxvP+9Zh+yu5p5/3bkBZ+2hcPMwNvLkEM+4ohkPLN/p/CX4cWDobs717gdnjUbXlMPwNe1HwwPNwDNPuZ96HBeOrsHym9p4njiHrpsWccoP2tx7B7Jnr8F7qNN135zQpHnj0BK81AvQfbAx44fV6AvmAjYF55rnW6NB/5yPTyAdTT93TcGnPUnZepvYkGyj5+nn+ZCO/CYLQo/SIgkQLek5TDIbnHNbozrr+6d9XIX3hNhQWrsd9t2Sh5NT5TswfWgrfRuPBYN44ho4JN2PVye2oGn0tln53MZZ4p2MiFapQjGeXXmecC6dp1RQkz1SgVlMpNc0mwbhs0txyusVa1zI8ULinab+18+B7zoSzJNF8+ragwR4A9say4WDOvjh+/Lj+e/To0fp515wPBxsOx7Sf9R3Qk3lo4+B3G7BudxPSZi7B4lsmBD1fg7ePaFotmtD4zlmDagHq/ejoLJtqeTjuy/aAQna8A+2OOGhqFjpOlPHKwKCuBDVUfSa7UFOipfxwjQGXdkf/vQ+tzoDSU12inRc36886U9M1tUjDNRy6KKqxT2t0FFVIZhGE3qBHhtioDLElzA1BOaQWOuTWPRnI8QClJVVdnIcnw5MDlJRqLWmhvzFQhtiYR9LT03HkyJEzhtTGjBmjn7///vvGlc7JeaAQK6dras4XiXAPrsK6vy9Fzi8Xw93SBEdiO0r3NCLn6nT4T8Qj7sgaPOZfEHi+PRHxdRvw/JAbMLm4AHdtNm2YNPmdy5DxRQOaBmvPVG3A3J8mYeMzeejYvQZ7UhYjp3gNGq5fiZzBTWhPiEfDxiW4K+3nKEQBCh724p+fuRL/csc9hg/PYVI8WsOgBj5NQXJOzkd+FtWcNmPoOROZbZV6L6s+bD0vH1NcgXu1qcYQW0rgGXMIW2uRoNhXDpemdFVWdN/HKkNsghAbesxI21SSmJHZKo5cORIGMj2hINEoOpaVSyQKEhkxYoS+OBrzBpUic8jt2LFjkRmRJ2doTYcqVAUZTp/ROEjORs7IBpS+bvQUhZ6fgakorUHZJO2dbxmXO0EMtnsXUZAEITb06DpIVJJoc8QMzRk6gtAdA20dJCpJXHzVJHjIrWfJw4pHs1F2/yPYZVwR+iaiIAlCbOhRBUkQrDLQFCTCIT9WelwSo3eUI6E/IQqSIMSGHl0oUhCE7uHyF7TXE+VIEASh9xAFSRAEQRAEIQRRkIQBDY20OYwnCIIgCMEM4pR7p9OpVxRW4bh394vYCYI6tK9g+uxuQdHOoAzteTgzLBzcab8zOIss2GDaCvQz85bkD6EvwtmRdsp9rvbOSTcq2MlXbMwwX7FcsArdpLxKWcLvlJiY2G1Z0hWU5WxZFezU0YwjxhXjzCr8xnbiiu6qloF24ooy/N520qcZV+eNHz/+Ky7WyIPb+1vBTDTt7e1KCdaUseouiYYssSpvR5b0R3/3ZphZIDU2NiqlT2ZMFgxcub2r7TqYhrtaB4mZlIbVkWz1EQozJ+U4PZ9+sGKkLQhWYP5iGrNipM3nmZ9o52Y1XzHPsBJi2lbJG8xXXOJFpTxgvmJZoGKfRz+zTKC/rbrNb0y3Wdep+NtuWWKnjmYD0I6/VeOKZTfjqbfiKly5H47guIrKLDZ+QGkpC7GAisW5sFAkCwuVzCoIkcDyV2axCUJ0iYqCxOnIwb0MghAtYj3Nv6cUJLZKJI8IsYA9C0QUJEGILqIgCX2anlCQiFnJxAIZYhNiCcteq0NsgiB0j4yLCQMac2xfEARBEIIRBUkQBEEQBCEEUZAEQRAEQRBCEAUJ87H6mdXav8JAhDZIph2SIAiCIJj0qILExa4uueQSfSGmHiF5JbYVrjBOusIBx1DtMM7C4V23DWtvM06EcwbOYuvvzP/ZRqwuME4iJtA4uM44EwRBEE7TYwoSV9S8/vrr4fV6kZeXp89OiogZP0bh7v3Yv28/dj7hhfv+jSjcXIjd21bj+wvXYpt2ff++ndj4oxy4F67Gtpd2YudLu7Hxxz/Eysevhts9C4UPX6/dC312LXby/KUFyOh0kdEc3P/MbuzesVM7VsP7g/VYNtWNrEVrkWo80V9ISUkxfgVwTs6H58xLkaG9R0WMhPpB6Bqu4sqVjq3MDHUM05R8yx1hgcZB5+uIC4IgDGwGO53Oh4zfSrAw724lbSpHN9xwA9LT0/VVMbkE+YgRI1BbW9vt1OcfPPwAvrZrFm78341IujweJ8+fiOvO347ZCyuwcNX1GPI/xTh01IGvz8yA43A93vvTHrx53jjkTmzBwudO4NbkCuTfVYeVZzw7HZ7M4Tjykzm4fVMSrvlOEt759QuoMNwMcDmyJryDl189jlFZmkL1PzfhkPtWnNh8C56tNB7pB6R4vMjNGousrDR8VXsEjqu8mDOhHTUVR3B8hAfefI92LwtZCS2oaE1F/vxrcOXYr3D0yHE4NEVq/jVXIg1HccRxFby5WRirPaufHx8Bj1dTtLIS0FLRgtR583HNldp76M7HcZh2vfYe7dmElgp8NeVMP3w2IfDeLF22FuEmJ3OBxU8//dQ4iz5cYI9T8E+cOGFciT4cwuNqtpGsKMuV6UeOHKn3tnLtJL/fH9FKslnzbkbq0VIk3LkR6/7pf2PxLbOQdN6lWLzSi0Qtbb9xm9Z4+Ic8XHnz/Xjw7v8F7/WT8UVpA1KvTcW7W17A28Z7hFiTAs+8VLRo+avduGIXlr1MYyyHBUGIHj3SgzRt2jRdOQqG5/n5+d3utRKv3W7X664yVL3ZhEbtV1ODT/v3Iq3F7EfD6wdw4MAubPrN8/hk6nTMyp0INPpDCp/QZ/+Mz7TWdvsx7VZ9BzoCD51Jcjqm516NnIs/QuNJ41o/pK6kCOWHi+HzFaGylec++IqrjbvNKN9RjOJi7ZkWrejOmgInL7vSkeoC2ir2oVyTcY5NhbOuBEWHy1Hs86GoQlNpUtKMnrQEuLRncbQYRcU8Au+uLtbc8RWjOcF5lh/aKopQrL2ryFeCOv1pgVA5YmPivffeQ1VVld54GDNmTOSr1E+6Dwsy/Njzxz3Yc9yNa6e9h/3HM3D1vcCiWRPR9GUSpg6r0u9X4Urc8F1DTugZXJnI9+YitbU10ChI0RooXi+8Rncue3ZPnWvPeuYFzpV6ewVBsE2PKEhdtYDfeeedbtegefr3VUhfuA2Fhetx3y1ZOG29tBW+kg5k37kYi7WjYHIiPoAD8aOzMCsrMfBISRUaEnOw/sefhDz7Ln6pnef8shCFO+YjoysDpKFJSL9iLtKH+vXTw3UdyLhlFUbrZ/2FNrQm5EZU0NZpSotecLdWo1ZTZFI8+ZhC5cc1HPzT1jIcuUYB7uxmiDQ9V3tOqwyGt/CNZ/oh0Ks1RassPMpDdtFEZa+gaMOF/tirWl9ff8o/x48f1/PHqFGj9PNucTgQd6IBZa9oDYFdm7Dp9xV4qugw4q9Yi6vdDdj/npbQW2pwQLu/Z7sPhSWGnNAztFZqjYJAY0RHa3QU12p/U9O0fODUGhxvaI0IrQHS4grki6P7TjUyBEHoeXpkJW1uHJebm4tvfvObxhXg1VdfRUlJSYRDGxnI8QClmsJzFsnZyBnZgNLXG/TTDE+OphiVai3kTgh5FskZ2purUFUP5P14PRZPjg9c1/BXbMCSXzWe+bwQGVrrN9NZicoodA/FeiXtniCSlbQ5lJiWlqb3HAU3KNxut/63oSF8GvSuK0RO8Ro0XL8SOYOb0J4Qj+qn5uLezdlY+du1uLL2Ecz9aTzW/nIx3C1NcCS2o/SBXXD/Yw5eKrgL24z3CLHGiczJLlRW1Ok9RvlZVH7aUL6jCLWpxnltMXyHXUYeStGeb9We73ogWlbSFoTYcN6ECRP00tjcvdYKHB7jsEBLi9kk6ppgJcmaciQMZGivxoKf9hVWV7xm+jQVE+4KbRWXy6W7252dXGeYe68xjdP+KJKtRtiDxHzCXiQqScxbtEU6duyYvjN1pLivyIH7w1KUaYp/Z4RtRAixg0NqualoO1wUGKaOEioKEtMjh2650bhKuU95yqr0vtrJV5y8QP+q1FfMW8yLlLXqb34ruk1ZK3nRhPmYciphZllCVMLM8LLx1ZtxRbcjsaMMxowrylot92mPx29Gf9uNq/MuueQS3ed8mdVAMKNwijR7kCKBgaYMM/Qnn3xiXBWErqGC1NzcrCdYq+mTGYVpjmlbZTsR2gOpFiysQFg40N+RKkiEShILNOYRFspUllSUO2HgoKIgMV8Qpi2rlS7LcMozb1iVJXbyFSs+ytHfVssDfiOWCcyHVmXNyRyUVSlLTOVKJcwsD4hKHc2yx1QKezquOIGL8aQSV0xfTNcqYbYbVwwzZenv81JSUnTXrXqCMABc00g2qxViBYfYaIujkj4JM4tKwUCYpu24S1kekQyxBcNGB+WZr5hJBSEcKgqSWV6rlvs8ejtfWcVOmIkdf9uVJaph5iFxFTnBsoNUA0BU5QTBCnbSWXcFA1uU7FLtDLvuqsp//PHHaGxsFOVIiBlMm6rpk3KqFS7prXxlJ8ykN2VV5SkncWWNYNkeXUlbEPoi5nCDIAiCIJjYVpA4Nml2hwlCtFEZQxYEQRAEu9hWkGhXQfsKQYg2piGoIAiCIPQ0ttdBIrTQN41Q7Yz9CYIJZ25wBgO32ogltEGiUfRHH31kXIk+Vo20BcEK7MG3aqQtCEL3REVBIqxoOJ1QEOzCAp/T43tieI3plofKehmRwsqLCp80HoRYwHTFGUOiIAlCdImagiQIQudQQTIXjhSEaGPagYqCJAjRRRQkQYgxMsQmxBIZYhOE2CDT/AVBEARBEEIQBUkQBEEQBCEEUZCEAQ0NtC+++GLjTBAEQRACiIIkCIIgCIIQwiAa93FBPk4TtQpb35TlXxVouKq6NACnTVNWZWaQuRu1SpjpHt22E2a6rwLjiodKmM24Ug2zHX/TXdV4NuNKJcwMa2/FFf2sGlex5W6sf2m99q8wkGF+7M18pVoe2MlXzMv0t0oZaIZZtTygrGqYpY62Bt2zE1fB5f4gBoAfT2WNFnpeNbFSRjWDEtPfKjDwPFTcthNmYiexmv5WgW7S3yoJjkQjzCryduNKNYMSu3GlGuYLL7xQP1T93SkL12LbOq/2YwvWPbxO+1cYyDBf9Ga+UpW1W+6r5knSm+U+ZXu6jia9GVd20ifDrAplTX+fN3bsWO27q+34S8/zRVzQTyXy+AF6Q5YfkH5XWYiwN8NsZhLVuGK4VXdYtuNvZhSu1aIiG+u44v3hw4fru+eHYsff/F781jyY4dgqiWSaf2JiIpKSknS/f/rpp6ivr4/I/ZwfbcTKOUno0PL12/89F48NWYv1389CPNrR8Icy+L89C5PhR9nWdWjPzoH/w3RMPPkICv65ASs2rUV8eRnc1+Qh3dGOxrINWPSPPjQb7xaihCsTmc5KVNYZ5+HQns2fNwUtxT6UdPM80wrTmJVp/nbKEuZJHr1RBvZmuU+37ZQHqv62W+53VwaGo7/GVbTCPDg+Pv4hlZeYqESaSW/JMrz9Mcx2/T0Qw9yd23z3iRMnjLMzsRtm09/MrKayFQ4qR06nE0ePHsXx48d1pYrKWyTbrVx++aV4Z89rOD7q68hJnohLPJeg4SdzcPvTXyD9slqsqR2D6z77NW55cAhuuD0dh9ZXI+vWbLS8m4XrZ32I44m5SK4vxitvncTI6d9A29Nb8JbxbiFKXDAC0665BldmZSGhpQK1Lg+8+R5kjf0KR48ch2NyPuZfcyWyElpQceQdHKn9Ck7HcRzvRu8xKwRuzRMpdvIV5XqrPLAjayfMRPxtjXMhzGrjLYIgRBX2AHA2HXuM/vrXv+rXPvzwQ70lM2rUKP28a4Yi/W9m4eppF+OjD1lJxsExGGg/pv2sr8HbR2r0p87g4JM40JKO67+XBfz5eZzQnm86egAHXtmD7c8WotJ4TIgu1cU++HzFaE5wIiWhGUU+7bwcSHU5kYo3tHs+FLW4kGI8LwhC7yEKkiD0Acxu9M56mdhD0D1xSBqfjbnjHfDjMHwlHcj5ZSEKt63EstkZwBvH0DHhZqxaYjyOBjy6twlZU/048IsybPh9FdxzlmLxoiVY4JmI8H1dgirpuV54vbkY3tKGupbhyPdq51OA2tY21GKqds+L/IRWmKNqfD5/stM4EwShJ5GtRgQhxkRqgzRy5Ej9WdPuyBxyO3ZMU2663UzXjWyPGw0lZZrqY5CcjZyRDSh9/dSVbshAjgcoLakyzoX+ABVoqzZIgiB0jyhIwoCGPTecEkqD6FgRqYJETCXJNIQNHnIThM4QBUkQYoMMsQkDHu6031eg3RGVNXMGmyhHgiAIvYMoSILQx/j444/1ZQdEORIEQeg9REESBEEQBEEIQRQkQRAEQRCEEERBEgY8n3zyifFLEARBEAKIgiQMaLgQ48mTJ40zQRAEQQgg0/wFIcZwCjaXErCz/L0gdAXXzOJyFTLNXxCiy3kpKSlfcR0NlcKbcjxU900xVw9WcZtrxKi6S1miIh+NMDO8KrKm2wMpruz4OxphVo0rM41RngoSlxKgXwQh2pgbelpRkHo7X1Gup8sSu+U+5VXLAyn3rWE3ruyG2Yyr8yZOnKgrSFx3xepHcDgc+gJ4lLU6JZlufu1rX9NlI1lALxSXy6Vvy8CNRq1+BFZW3LGXst1tIBoK5S666CJ9WMbK5pAmDDPD29UGqeGIj4/Xw0pZlbhiLwZlrcYVE2tCQoIuqxJXlOVK0PxmKnHFBEtZq3HFDWIZV/S3SlxxJWvKqgzBcQVsxhHlmWYiXShSEKzCstTqQpEXXnihnq+ZPk0FK1KYryhP2e5XeD8b5ivVcp/5yhwWt1oGMg/S75S1WgayDKLbqmUJN52mHOWtwjJMtY42G2f9rY4244qyvVlH67v588NZ/fAmTKxWA2DCj6YSABNmThV/012G2WrBQCjLQ6VgIJRVrSgpy2+t4m9CWdW44nfmN6MfrGJ+LxVZYieu6O9wccWCLykpqdOCi/Kq6ZOypr/pRiS7+QuCCqzImMaspFWmT6ZHO+U+07cKdvIVUS33iWoZyG9s5mn+tQplVMtA0107caVa9tDt3oorO+W++b1VoKxZR4sNkjCgYcXCFsNHH31kXIk+bMVJD5IQK1R6kARB6B6ZxSYIgiAIghCCKEiCIAiCIAghiIIkCOcU87H6mdXavzYoWI2NP7P1BkEQhH6PKEjCgIZGgLG0P1KBsw3VlwVwwDFUO4wzJQZr8sM6eUPySmwrXGGcCIIgnNuIkbYgxBgrRto0GL/44ot15YjTa+vr6/VZFd3hXrgW67+fhfh2P9pPVGPDgXjkYSEWPsoepRyU3vEYHE+sxbKsJEC7//y/LcSjJYawjhveJ9Zr9+PR7m+Hv24D7jqQjbULJ2rKVhwa/7gd1dkFyBvRjpq9z2B7wt+FeVd/xImUFKCuzjR0ToFnngvlOyph1fQ5RXtRXV2dcWaFUD9EhhhpC0JsGOx0Oh8yfguCEAMineZP5Yhrhxw9ehTHjx/XlSqun+L3+40numI0Vq66DQ0/mYPbNyXhmu8k4Z3jTnx9yBZsKb4cN9yejoZPpmHBvCEo3X8I1ed/HbMuOYFf7XzTkNeYuxKPXt2A5Xm341eJ1+C6i9/Bobrz8MWf9uDN88Yhd2ILFj53ArcmVyC/aBweDfeufocTmfPyMS0jA1lZCWipdWLm/GkYcfwIymrbkOLxIt+Tpd3LQkJLBWpdHnjzPchKaEFFrQsebz48lKuohUt7NjdrrPZsGr6qPYLjF2Qif/41uHLsVzh6MgPzKae9h7JHXTMx/5orA25WtCA12A8VX2GK/t4spOEojhzveqo1FSSr0/wFQegeGWIThD4AewBGjhyp9xiZ68t8+OGH+hDg6NGj9fOuOR+OwUD7Me1nfQfM1T/ihrgDP4ZoR7wDcScaUPbKARzYtQmbfl8RuGfC+1+2o0H72WCsH+KeOh2zcicCjX6cUfV2965+RxsqdxSj/HARfL4S1LVWoshXhPIW43ZLOYqKi1G8oxzNVKampAaup6YhBXUoKa7lCdLY+1OiyR0u1t5ThMpWTfVKTdckNFzD4dKkyzV3iovNd1ej2OeDr7hZU4xD/MD3au6VF/tQVCE9Q4LQG4iCJAxo2PKmzU9vYy6tH9rLFMnwGlALX0kHcn5ZiMId85FB86F3GuGYsRaFhTcjY6h2XujD3pPZWLZoMZYuKkBWQpUueQreb8/B+sJC7Lwpw7BhciB+dBZmZSXqZyipQkOi9swlb4d/V79E02bG5sPrzUemy7jUKZoiU06FSKO2BnWuTOTnBhSmhASqQm1oTcjV3uOFR1OYXPq1rkhHrvacN3c4WjXnz/DDGO2986ZgSq4X+ZPDvUMQhFghNkjCgKYvLRTJHiQOxR07dkxXjMwhN55HtCpscgYyUIWqeuN8Ug5yUIpSvxvu+ga9d8h9RQ7cH5ai7NpVKPx2euA5UrcTBfc/BfekDOAtTREyLmd4cjTFqFR769mcepfpnmAJ5+RMuCoqoWKtFIzYIAlCbBAFSRjQ9LWVtKkk8XnCPYWCh9wEoTNEQRKE2CBDbILQh6DdEfeFozLFniNRjgRBEHoHUZAEoY/R1NSk92ipbrYoCIIg2Gew2+1+yOFw6LNlIjMIPQ27dePj43VZqzv2sluYQxtEZadh2mZwCEJFlsMdXIhPxd900+kMGE2quM0wM+wqPQP81owrums1rih30UUX6eG1GmYaEHO6Od1UCXNCQoI+lKUiy3iiEbWKv2nPw3RCfzOuO4Nh4/3O4iMxMTEqcUU3ZDd/IVYwjVqd5n/hhRfq5aBKWcK0zDKQ+bGrfBUO5iuikh/oLt1XyZPmAqwq5T6/L8sxouJvlp98h4q/WW7braNV4ipadbSKv/tKHT1Yi/SH+MPqxyN8CT2vEumEFQeHEqx+PEJZtrCtfjxi+lvl4xHKR2JP0hn0NwsylTCbkaYaZrrJMKu6rerv3owrEq7iYHi6Sr9206cZVywYRUESYgXziFUFiemT6VG13CeqPZx285WdsoRu9lYZaEfWbh3dW3Fl19+qZSblo1FHi5G2IMQYK0bagmAVVgZipC0I0UdskARBEARBEEKQHiRBiDFs3dP+QaWbWhC6wxzGlR4kQYguoiAJAxrT+JIzx2IFFST13fkFITymjYcoSIIQXURBEgY0VJD60kKRgmAVsUEShNggNkiCIAiCIAghiIIkCIIgCIIQgihIgiAIgiAIIYiCJAxoaOAaS/sjQRAEoX8iCpIgCN1TsBobfzbfOBEEQTj3EQVJEPoY5j5EPYV33Tasvc046YrBDjiGOYyTMCSvxLbCFcaJIAhC/0Wm+QtCjLEyzZ9LDtx88836ZqK///3v8fbbbxt3wuNeuBbrv5+FeLSj4Q8PojBhKQrcSXB3vIp1bVOwLCsJOFGN5//tSeD7K3FtIvdmehsbXnRi2e2TAX8ZtszxIX7TSuSlONDe9Bo2/PAxYPl6TVZ7q78d/roNuHGZL+CggXvhaqxdOBEOxKHxj9tRnV2AvBHt+NPzq7D00ZeMp/oDTqSkAHV15lT5FHjmuVC+oxJWJ8+naC+qq6szzqwQ6ofIkGn+ghAbBjudzoeM34Iw4DA3klXZUDFSTDe623jRVI5GjBihV3isaFtbW9HY2Gg80RWjsXLVbWj4yRzc/vQXSL9sKIaMuBrp730Pc1+6Go/OG4LS/YdQff7XMeuSOLzxTjFefvU4RmXlwP0/N+GQ+1ac2HwLHrzm3/DPlzSg+NU/4+TIGfjGN9Jw5ZgGLM+7Hb9KvAbXXfwOfv1CheFmgIwpU/DFn/bgzfPGIXdiCxY+dwK3Jleg4J6njCf6A05kzsvHtIwMZGUloKXWiZnzp2HE8SMoq21DiseLfE+Wdi8LCS0VqHV54M33ICuhBRW1Lni8+fBQrqIWLu3Z3Kyx2rNp+Kr2CI5fkIn8+dfgyrFf4ejJDMynnPYeyh51zcT8a64MuFnRgtRgP1R8hSn6e7OQhqM4crzrjWipIDGNWdmsVhCE7hnELRDYulVZ5XfIkCH6UAD/qnDRRRfpFYEKdNfhcCj5m25SnoWKVbjTL1v3dsJMf6vAuOKhGleq/qZ79DcreRXsxBXlKM/vbhXGbyRhdrlcxq8ziY+PV44r5inGVaT+5vPz58/XlSMTrfGCa6+9FuPHjzeudMX5cGhJuf2Y9rO+Bm8fqdF+NKHxnQYtEA7EnWhA2SsHcGDXJmx65UtMz70aORd/hMaTuvBphmphbanBAe3ZPdt9KKzVZL9sh/YWNHSxG7h76nTMyp0INPrRf6vnNlTuKEb54SL4fCWoa61Eka8I5S3G7ZZyFBUXo3hHOZqpTE1JDVxPTUMK6lBSXMsTpLH3p0STO1ysvacIla1aHKamaxIaruFwadLlmjvFxea7q1Hs88FX3KylwRA/8L2ae+XFPhRVRL9niOmaaU4lXzE/2Sn3ma/slPuqZWA0yn3VMtBuuS91dOREs44eRM/r2/orBIKY8lahHA/uI6SCqn+JWSjY8bcqdsJs+lvFfcowvKr7gZnyKtj53kRVjvRWXFn93nSnM7+yMhk+fLhx1hW18JV0IOeXhSjcthLLZmcY1zUKfdh7MhvLFi3G0kUFyIpv1hShJKRfMRfpQ/36I4frOpBxyyos+tV2VI2+Fku/uxhLvNMxcY8m256D9YWF2HlTBjov3h2IH52FWVmJgdOSKjQk5uBnP/hW4LzfoGkzY/Ph9eYjs3N92UBTZMqpEGnU1qDOlYn83IDClJBAVagNrQm52nu88GgKk0u/1hXpyNWe8+YOR6vm/Bl+GKO9d94UTMn1In9yuHeoYaY1lbxFWTN9q0DZ3ij37YSZsByzI2u3LFHFjrxdf6tiJ64oa9Y5KlDeDPN5qampmh/UKk6+KPhlVqF2SFkVt83Equpv0h/DTFTc7k1/25GNdVzRb11tNRKtuGJriC3A7myQLr30UsybN09vwZi8/PLL+NOf/oSOLnpwziA5GzkjG1D6Ovt8zsR9RQ7cH5airF47CfMcyfDkaIpOKaqMc/ckTeF6S1N8kIcV/7VYU7KMG/Dj8K+WYMsnZz4vRIZzciZcFZVQsVYKhmmcacyKDVKs81U4eqsMtFt+Ul7V33bDTLn+GFd2/E3shFnV7eAwi5G2MKBhZuhLe7FRSbruuuv0niMqR6+//jr++te/GncF4WxYGVhVkARB6B5RkIQBDRUkjnX7/YHhplhgRUEiNM5mpffBBx9E1nMkDGhEQRKE2CAKkiDEGKsKkiBYQRQkQYgN6pZMgiAIgiAI5yiiIAmCIAiCIIQgCpIgCIIgCEIIoiAJAxoaaXe/zpAgCIIw0BAjbWFA01PT/DlTrrutRgRBFa45I0baghBdREESBjQ9pSBxXSPVxdoEIRzmPoKiIAlCdBEFSRjQ9JSCxNWxP/30U+OKIEQPmeYvCLFBbJAEQRAEQRBCEAVJGNBwv52mpibjTBAEQRACDBoyZAjOP/98vZvWKjQMVJUl7BbmEIcKdJd+V4FuUpb+twpl6G8VWWI3zBJXkWOGOZws7YK6sg1yOBzKYbaTrwQh1jB98lBJn5TpLl+Fw26+UvW3WZaohtluuU+3VbAT5kjKwHD013LfblyZYR7ExMoLKh+fAeAWCiofkO5xZo/qB7zggguU/U05+ls1wamGmVx44YV6wlGB/latdPmd+c1Uvjfdo79V44rfS9XfDDP9rRpXTGOqcWU3farGsyDEGpb7PFTLEuZp1QqI+Uo1b1BWtdynm6plt1mWqJYHdmTtxBXDqhpXdM9uGWg3rlRkKaMazyS4jh4cHx//EKcfq8yw4fAEZc1ZFFahm6o7ldNtyvKvVUx/q84qYnhVp2ybYVbxN7ETV/R3b8SVnTCb/u6NuKLbqv6mf824YkZlQaH6/QQhHKwQmMba29uNK93DNN1bZQnlVTdhppvMR6r+ZphV/W2nLKF/VcNsJ66InTDTTdVyi/62U+6rhpn5wW5cmf6WWWzCgMZsZagWIJFA5cjKLDa2FtniO3nypHHFPt5125BTfCPu2mxcEM4ZWCEwjcksNkGILqIgCQMaKkh9aZo/V/UeOXKkXun5/X7U19cbd8LjXrgWa7+fhST4UV30BzRM9yBuy10om74WeV/7K9LHjQX8ZdgypwbZhdlwJMah6U/VGD1lIhyIw+GtP8Ty//qz8TahJ3BOzoSrohJ1xrkqoiAJQmxQG0QWBCHqUDni8e677+Ktt97Su3m1BoxxNxyjcd/tGfAX78Ge4ka454zHa6sPY8x3N2JBUhme9N6MXXV+HH7qLqzRlCFHYiO2z74R6w+/j71PrcfzbzQheZLHeJdgiRQPPCn6D3j0H9pfrxder0f7xdNM5M8zz53I1H/nI9PFm8Mx9dQ9DZf2LGXnZWpPas968vXz/MlO3hUEoYcRBUkQ+gA0aLz44otRV1d3asz/ww8/1MfD2aMUnvPhGOxHw+sHcODALmz6zfOoQAcw2IG4L/yoNp46RVMDfNof99TpmJU7EWj0I3LrFeEM6kpQQ9Vnsgs1JXWaQpSGVP1GAlyGEtRS7oPPV4I6l3ZH/70Prc6A0lNdop0XN+vPOlPTNbVIwzUcuqgWc/t8PhRVSM+QIPQGoiAJQh+ABoG0Owo1iKRtVPezMWrhK+lA9p2LsVg7Cq7MgfcHOWjcuARbO/Lw8wdycLiuAxm3rMIiQyKAA/GjszArK9E4F1SoQxryE1r1oTJnQkLg4ima0WzqN621wBT2GM2ESx8Oa0Zra+AWcSWE9BS1tEJUI0HoPcQGSRjQUPmgfVBrcE0VZSK1QWJPEaeXmnZH5pAbzyOaAZOcjZyRDSh9vcG40D0ZnhygpBRVxrnQHRwmy8cUvYunFsXsGdKv9x5igyQIsUEUJEGIMVaMtKkk8XkOrXE2W/CQmyB0hihIghAbZIhNEPoQtDvi9H4qRew5EuVIEAShdxAFSRD6GI2NjTh+/LjywnKCIAiCfURBEgRBEARBCEEUJGFAQyNtpzHlWhAEQRBMREESBjw0ho4lKvsJCUKkcHkIlf2uBEEIjyhIghBjuGkiZxoJQrShYsQd16O5b58gCAEGjxkz5iG2oLkgndVWCOXi4+P1FrLVzT5ZYSQlJeluquy6y/VhhgwZosta9TcLFB70t9XWPd1MSEhQCjNhmInK7CR+a35zlTBzpWbK089Ww8wWamJionJc8Xvxu6mE2YwrFX+bcRXO3wzb0KFDceLECePKaRhXTKcq/uawHeOKsnSff5lmzXzG93Z10N9cD8mks2e6Ohges0esO3c6Oyhr9kh0dj/cQT/T75QlnT3T1cGhTk5VN+nsmXAH0zf/qvib7tJ9pq/O7oc7ejOumG7NtPvZZ5/p1yKFy07wm6mUJfxeTN+U6+ky0OVy6e6ryPJbMdwMs9WyhOmDezYyzCplIMtPxreKv1luq8YV05edOpr+JiphNst9FX/3lTr6vHHjxn1lvshqIJho6BnOtrEqS5hgmbFVZBnx/PAqH4B+ZuSrRBzl6DbDbDXiCCOdYVaRpbuUU/E3w8z4UokrhpkZVDWuKMvEphJXZuWjEmYWSJSn2119b7Pg62yzWsYVW+YqYWZcMbz0dzAXXnihHhfh4PfmoZJGCMOk8q0JZemuSpj5vYmqvymvKstvGvqtI8VOmHszrvi9VJQjQiWDfqbbVsNNPzNf2SkDVfOVqSioxDX9zO/E8sCq25Rjnm5vb1fyN+s6yqp8L7txJXW0NYLjShaKFAY0LEDMjNgTqBQ0ghAOpl9BEKKPKEiCIAiCIAghiJG2IAiCIAhCCNKDJAg9AO0IOLbdnf2RIEQC7SNox0P7EEEQYoMoSMKAxrTfiKVtEBUjHh9//LGyQa4gBEPbOc5OIn6/X/8rCEJ0EQVJGNCwoulqFlu0GDFiBBoaGpRmVAhCOEaOHIlPP/1Un7EjCEJ0ERskQYghHFpTnd4rCN1B5Sh4HSZBEKKHKEiCEEM4hCfDakKs4NCwTPMXhNggCpIgCIIgCEIIoiAJA56+0sNjbv/A7RT4N/jgPUEQBKHnECNtQYghXPKeNiKcwRYOt9uNlJQU3Wh81KhRaGxsPGN1b9ow1dfX64cgmHDrGqaxTz75xLgiCEK0kB4kQegDaA0V1NTU4MCBAzh+/DgOHjyo/zaPt956S3/mbObhkU2P407zbOXjeOR640QQBEFQRhQkQegDcLYbewK4CzXXTOIwG3+bB3sKeP1sLkbypeORYp6NHY/k4caJIAiCoMwgFrw8zJ24rcChA6fTqbQ6MGdesOCnfYUKXCSNu0KrzOAwbTpU/M0hEIaZFZoKpn2JCgwvD5W4on/5zVTjyo6/+b3sxhW/u1UYVrqtOg3aTvpknmKYI4XPTpgwAenp6UhMTERaWpr+2zwuvfRSXYGKmOmP4LmSEpQcOIjN9yYDs7TzA+Uof/0gXl67CMm4HU/+9gW8sLcczz1oyAj9DpV8QZjemEZV8xXLEjv5ylJaDoJlgWoZaKfcp3ssS1T9zfKz8wZO95hx1dN1NBmodbQZV4NooEpbB9WVhCmrssYL3aPsX//6V+OKNegmZVX8bbqtYpxrR5aY31sFhpnyKmGmrGpcEbqrGldmPKvGVSzjmZnJXJE4lGjEVaTQ5ui1117DoUOHdDuj8vJy/bd5lJWVobm52Xg6AqaMR3L7n/Hc02uwtRS4/wfXwPnWS3jpD28B0+ZjKRy4YBRw6I4puGmlISP0O+zkZx4q+YqY8irYkTXLMRV/m7J2/K1aHtiRtRNmswxUTSeUtVtHq2AnriIp98NBOdPfg7iIHVdhVfn49AT3A1L9+CdOnFAOBGXpvgoML8Otmsm4/1Fv+NtOXNG/9LdKXNE9O3FFd+3EFQ8Vf9O/kaTPrlpIXIRP1d8MM/0de9q1gMbBkcrfyUiOd+pX8cKTWLOrEeOuXoalC6fCqTXEGt/bh32lL2HrMz68zGeaP8K7tfrTQj9FpSwgZhmokq/slvt28hXdVW0wUc5OuU+37ZT7qsqC3XK/t+vo3oiraNXRg+gBFU8QO7JENdJIf/X3QA1zb/m7t8Js19+R8yye2tuB3F+/jBf+8BzmDdmHp57RLs+6Dcv+bhrGJ7Gb2YEnt7+F5OvuxrI7l2Hxty6DbHE6sBmI+cpumO2Wgar01zD3V38Hy8o0f2FAwyG2WO7FRpuFSKb5f+Mb38C7776L1tZWzJgxQx9uYwvKhDYImZmZ+uy2TkmdhpmjjmHfq0HLAJx17TLMnAXs2/umcS70d5gumMZkmr8gRB9RkIQBTV9RkMaNG6dvassp/t/85jfxpz/96YwhOm5KyndUVVUZVwRBFCRBiCUyzV8Y8LS1tRm/eo/a2lrdUJvj5lSCTHsH82hqasLRo0eNpwVBEIRYIz1IghBDIu1BEgQVpAdJEGKH9CAJgiAIgiCEIAqSIAiCIAhCCKIgCYIgCIIghCAKkjCg4Sy2iy++2DgTBEEQhABipC0MaHpimj/3BFLdz0gQwsEVg7mgnhhpC0L0EQVJGND0lIKkuuy9IHQHNzEVBUkQoo8oSMKApqcWilTdh0kQwsGd0rnjuShIghB9BrF1y0KcrRCrsHLh0AH/qjBs2DA9c6tAd+l3FhBWoZuqYaZ7Q4cOVfY3w8wKUwX6WdXf9K9qXDHMdvxtxpUKdJPyKmGmTG/HlSDEEpV8QcxyX6X87M1yn37uj+U+ZVXLEqmjrWE3roLL/UF8CT+eysZw9DxfpPIBKKMqSyirWjgwzKofj26qyhI7/mY8UVYlrvid6W8731sVM55V3DbDrALluktjHPrqqveImVvVbX5ryqp+b0GIJcxXPFTSJ2W6y1fhsJOv7JSfZrlvJ8yq2PV3b9TRxK6sapgZXtW4opuUVSXY3+eNHTtW++5fKe1+S8/zRZRViTwGghVUT8vSz/S7il0I5Rh5veFvM5P0Rlwx0Xz++efKYaa7Kv42E6pqmHs7rvjdeMgQmxALmD+Y1qwOsdkpS+gmj97IV/213LdTftqJK7vl/kCMq2B/iw2SIMQQdhOLgiTEClYGLNDFBkkQoo9a/5cgCIIF8v59G7b9e55xRuZj9TOrkWKcCYIg9DVEQRIGNOyKpVFeX2Ts2LG6vUZXjBgxAn/7t3+Lyy67zLjSNeyypuEi30fjyZ5m168ew2O/2mWcEQccQx1SAAmC0GeR8kkY8HBH9L7G+PHjkZSUhPj4eOPKmfDejTfeiMzMTMyZMweXXnqpcadzOMw3atQofTiGilVkTMfGZ+7Xf83/2UasLvBi9bad2LljNwofvh7wrMDGl/Zj/77d2PYzL9z3b0Th5kLs3rYa83WpIPKXYmk+4F64Fjv3aTIvLUCG2sTGfkwKPPMy4TTOzsCVghSX8ZvPeb3wevOReeqaIAg9jShIgqBx0UUXISEhQe9l4dGZ0sSeF/N+8BFK8D0rM3a4HhOfZc8Rf3OVZCo0oVDB+bu/+zuMHDlSP6cSdd1112HChAn6eShjxoxBenq6vqWK+Tc1NdW4G45BcAwNaDGOYQ440jOQPqwRpVvWofDVKtx95yzEV+3Bnj9WAdk3YLHDgcSW7Zh9473YqksFod1zOPJw3+1uHL5/BmYs3oUG49aAwJWJfG8uUltb0aadOid7kD+PSpBHU4y0e/NykctzT/CgoxPDO9WmBEHoCURBEgQNc30VKkE8eN4Z5n3z4BBdKMH32XMTiYJ01VVX6c9efvnlcDqdePPNN/HBBx/gww8/NJ44zbXXXntKOTKhkjRt2rROFaqmpiY0Nzfr7+Jfvvf48ePG3W4YEge3/kNTlGp9WPObCsRdXoAl8/MQrwW96egBHHhlD7Y/W4i92lNNDT796c65CA5Npv2Y9rO+Ax2BiwOD1koU+YpQ3mKca1SX+OArboYL2r3icpTv0M5L6sCupGb+9hWjxnhWEISeRxQkQdCgEkGlgQoEj48//ti4cxr26Jj3zaOz2UPB9z/99FN9em84Ro8ejSNHjugKzOuvv673PFGOfuqMP/3pT/D7/cbZad59991Op8UmJiYiOTlZ/8veJPYgRTbM1oLGoTlYu7kQN0/QFMbUm7H4llmY6I6nuoQXfl8F95ylWLxoCRZ4JqI9IBSGrZoC0IGcXxaicMd8ZAzodTSb0dpq/CRtQDp7kDgEV9eK4XrvUi6mJkgXkiD0FjLNXxjQsAeIvUUnTpwwrkSXSKb5c3iPiktVVZU+bXvq1Kk4dOiQcbdzJk6ciLy8vFM2Si+99JKuXHWmjLFXiT1OVPDoVktLS0SKW4AM5HiA0hI/3MkNaKg3z6tC7pvnZBFWbZ6LdOMMqMbO25bjKeMMyRmaVBWq6o1zQRmZ5i8IsUMUJEGIIZGug0T7IdpAsQeIik4kTJo0CbNmzdKVqddeey2swsPeIypI7J1iZcrfQv9HFCRBiB2iIAkDGtNmJ7LeFOtEqiCpQv+rrhgr9H9EQRKE2CE2SMKAhkNUVGD6K1TsRDkSBEGIPqIgCYIgCIIghDCIU5B5sKvWKpSjkauKLGHXsKos3Y1k+nRn0E1Vf5uyqm7bCbMZVyr057iirIrblOnObd4bPny4cXYmvRVXghApdtOnnXyl6vZALPftyNqJK8pJXFkj2N1B3GaBh4pH+PE4K4Z/rUL3uN5LV+vNdAfd5TozKv6mHMPMD2EVytDfqsMylKX7KnDxQvpbJeLpX34zlTDTPfo73LYX4eAwFo2DVeKKcvS3SpiZLulvlfRJXC6X7bhSCbMgRIpqJcB8xTSqmq+Yp+3kK9Vyn36m31X8TTcpr1oG2hmOt1Pusxyhv6WOjgy7dXRwuT9Yi/SHaMfQ2fop3UHbB8qpGrh++eWXuvGqqg1FR0eHsqydMNPfdFsFyra3d79iTGfQbVV/EzuydFs1rijDMKvIErvpM5yBNDMCM1Jn6wqZ/laBsnSXBSszLONdEGIB05jV8ojpk/lKNV0yX1FehWjkK1V/U1alLGElTzdVy0CiOnOU7totA1Xjym6Y7cSVnTDTzWjU0TKLTRjQUHnhth4fffSRcSW6sPXFQ7X3TRDCYTY8ZBabIEQfUZCEAU1PKEhUjlRaQoIQCexBEgVJEKKPKEiCEEOoIHEIj13NghBtOPRD+xJRkAQh+qhZ+AmCIAiCIJzDiIIk9DlUZj2owhkLnBUjCIIgCMFEZYjNnEJOWwtVa3dBCIYzGLihqupsl0jhGkicXXLy5EnjSnSRITYhlsgQmyDEDtsKEjMnN8L84IMPpBIQogbT1YgRI9DW1qY8XTMSmHapjLW2thpXoosoSEIsEQVJEGKH7SE2LubEGUBSAQjRhEoL0xUXSIs1PeFGfyLv37dh27/nGWcB7n9mIyYYvwVBEAYCthUkDqvFsoUvDFyoJA2k9YPYE5Camoq0tDR9yFqJ5JXYVrjCOAlh4VpsW+c1Trpm168ew2O/2mWcBYgb6oD1NW0FQRD6L7aH2C6++GI0NDSI7ZEQE1JSUvDhhx8aZ9GHQ2AJCQkxcyPSITYqR1pe1IdK+OyoUaNQX1+v22GF51Ks3vY4Jg6Jg//QPrz99TnIG9GOmr1rsKb1Zqyck4QOTbN5+793wbnUi8nwo2zrBrTPXmDIrEHBA88b7zK4fyM2YiEW/s8KFD6UB/eQRvg/78A/zC7AW8Yjggop8MxzoXxHJdqMK6dwpWh361Cnj/Rqz3lzkao9Vb6jCJVhRn9liE0QYofMYhMGNOylUl0KP1pwsUpTOWpsbNTtoY4dO6Zf67YnaeRwpA9rROmWdSh89Td4cMth+Bv26kpP4skKbFpbiL1HgazcRiz5Qw38b27AXa9mBMlUGS8KQlPqtP9x952z4C+cgRkzH8Ph2NiwDxxcmcin0qPFLZUj52QP8ud54fV6kMJ783KRy3NPSuB5HSeGO42fXcBFIqkgUREPhdvohB6hBN8z9wvr7DlBGIj0mIJEOw8W+GwZjxkzRv9rHrwuU62F3iJWM9gihZUb0z+VIxMqSy0tLd0rSB8ewZrfVCDu8gIsmR9sN+RG+t/MwtXTLsZHH4bMBDzo60LmTOIHA+0n+EuTV9vKSTBprUSRrwjlLca5RnWJD77iZrig3SsuR/kO7bykDprGhGb+9hWjxni2K8wepM5gmgo9OiP0GSrsgiD0kIJEQ+4pU6bos5IyMjIwceJEfXq1eYwcORJTp07ttBWEZY9j88p5xsmdePyJO43fdpiHRza9gBee5/EcnvzRTOO6MNDgFiC9PTzBXgD2YgUbi7PSY2XV7ZpQI8dj8S2zMNEdD1pruUuq0JCYg/U/ZpqOQ9L4bMwd74C+Fe8bx9Ax4Was+uebz5ThvU7Y8PsqpC/chsLfPozspDgMkjZMFGnGGRMn24B09iDNy4SzrhXD9d6lXExNCN+FxPTLZSo6Ww6jubn5rCMUypr3OMzMv90P6wrCwOA8TVn5igU0M4XV/aJoQEsFh8MB4YYpRo8erfcalZWVYezYsXrh/+677xp3A1x11VV47733zmhF6/zrCziYvBXT7nhKO3kEL7wAXHddF0aoEbMITx+cj/pp12FF5v14bv00HJx2Ex417nbJkqfxcu4+XKP7RegJaLTMtMleHg6HWYHpLD4+HidOnOhyPSVTAenMhi4pKUmX5WEVuktoT0R/dGeDxJ4it9ut5yX6NXjIrXsykOMBSjXl6EzcyPa40VBShgbjymlMmXSs+K/FyAp4V8OPw79agkd2GqfacxmTqlAlxkd9EqYtpmGrSj6VcZb7TNvhyn0+w6UwgvcqZLlP+XD5Khx28hUXdqV/WSZYtXtlg4N+p6zVsoS9anSbsiph5n6PVEZVwsyygXHcXVx1Bjsd2EFBf1udTEU36W+6q9LLbsYV5a2aMdDPtN2krNUZ8ma5Tz/zm1uF6Z1y/GbnXXLJJV8xEEwwVhMcEw1fRiPtcB+APUeZmZmorq7We4soR5lgNH/oCtRZrZwuFKRFv3gZiydcgLgTr+DR69bAuf4p3DN1BHDiHWx98CY87HkOL2RfgKRhdVjz7aV4NvA2g84UpMfh2PIo5o+7QGt6vQnfv96GfbOew089IxDnqMfmWw9h2u8WYarW1Du4eRq+91PjVUJMoYLU1NSklD5ZuLOAYGLvSjbcQpGsBHhdxUaJ7jJfMa1Hug4SC0IOOTODUzGKTDkSBjJM40xjVhUkpk+m6+7yFdMiy/jgSQxmmqaiYDVPkq7yFd2iAsMwdQWfoZxKnuR7WelbVTJM7KxnRlmVMozwe1NONcw8GGYVt+34u7fiinL8ZizXVRQkKmeUo797ZBZb9BWkIjz24uMYd3ADnjvSiDfarsEv/ulivFLyHjAuF7ltazDtA2+QXChUkO7B+A/rNXXnM9QVP46lQ36Ig1NLMO3WnyP5J89h87jnsMlxN+Z/uhlbS+rwRvFzOHhnsF+EniDWs9jCKUjRgBWRlYKVhQphoSQI3cHKgGkmVsPELKvZ4xPLPEioNLGHh+FQqYwFIRimIU42YPo9S6ewQI8pSDwqKyu7HGKjDdLRo0fPDsxKTSkZayglf/ckSpY0wnPdClyWdydumnU5vjn9Yuz7hR83fa8Njz7+EtqHj8GY5hL8YtpjeAHX4bqfGO85g6AeJOPKGe78cDNKrngJtz3djttnfROXeybho9XX4IfTREHqaWKtILF1TAWGK8HHAqsKkiBY4VxQkNhrxFb78ePHjSuCEB2odFP55o4MKvT9af7/vRVvjVuKkhdeQMnyr+Pd3z6pXZyG2//XYszJTIGTEy6Kn8LLJ6bhnjuX4e47F+Dy4W/qopYw3Hn5ec2dW53Y9/RTuObWZbhp+ngk0XacDfvX69Ax8XY8vkyXEM4RwnXpC4IQW1iJqVZgghAOjgwwfanS93uQDC6bNRPYuw/Bqk/oteSrZmLMB/twsNa4oMMZa8tw+anJIG049N+3YUXI2ngmkb1T6Cl6ogeJvTyhQ77RQnqQhFgS6x6knoCGwLQzlDwixAJOfvn444+VbKF6REHiLDYqRq+88kqXClJOTg6qqqrEMFU4g1grSBxCYAEdPEsnmoiCJMQSUZAEITx2FKQeGVvggnccxqASZK6DdMUVV5w6cnNz9SmIsdpRXRAEQRAEwQo9thcbW9I0lqIWR2UpWJvjOZUoFQ1POLeJdQ8SW+Cku/SrCtM9jVD5VxCijTnVfiD0ILEs0Oor3aaEvbLsFTBhHcJzzpSWGaBCMH1+iE0QVIm1ghRrTAVJde0VQQgHy10OE8dyFhuH8FQWR4yUSBQkPsPRh7feekvfXJoLD5eXlxt3AwoSl5JhWRFqvqHvwLApBS8tWIEdPHviceAHP8QvAjeVuWzZ43js9mlIQiOK196J+zbXG3eEvkSfH2IThL4KF2e0M8shEliJUUGSQ45oHz3RMKVC0ttQeWJ4OdLA1ZVpjkGl0Dw4C46VYOcLA6Zg/KXJuNg8Gzdeu2KXO/FAwRjs807DtAcPYdwNXEQYWPTMy3j6jsATZ8GdGJ5ZZJwI/QFRkIQBDbvqBUHo27Ahw1X1Z86ciSuvvBJf//rX9d/BR3Z2tj5bOlK4G0PJ3hIcfOEx3IRkLFr/MspfL0d5yXN4YJb2wIPP6ft1HvzDk7g9IBJEI1qHJGPa/3ePdu9Z3HTrw3jjR5txzzeScfmdT+N+zMQDWw7iIN+/90ks0q5svmsakjOX4ukfAdNWPhdw+4Amk2q8UuhziIIkDGjYNc8hBEEQ+i7sJaqvr8f+/fvxpz/9SR9q4+/g49ChQxYWm5yGy9KcOF6yCWs2v4K3rl+BxZPa8NIfXsJLHyRj3gJNJXJcgKTmrZh21lZV5DksXbYGbyRMg3flZpQ8swjJP70NRbVtOPSL7+FRJMFfsQGPbn4J7w25HDPveBS37XoPbZVP6ttUTR2XjM+OPIcNa7fif4w3Cn2PqChI5ji1HHJE62Ca4tETmBvLCoLQd6ENiTm0GPw7+Oiem5Ckr4l3EE+t3oA3HJfDe+ftmOfkvp7H8ErpPuzbsQEbtr+hP91Y38WuCd9+BM/9UzKeuvM2XOcpQtvEmbjGuKWTOh6eWXMw8+Lj+KiT/WlfWL8GL384Dt9ashRejs0JfZKoGGkTczaQIEQTpitZKFIQOifW6yCxkcJtQPx+v3El+kRipM1GzKRJk/Dqq6+esfBwMFw+hv48duyYccWEw2ebsXRCGxqRBOeRJ3Hbkjex9LePY6ajERj+GYpufRzO//coZg5uxGfDnXj3Fx7t+RfCbFc1E488/yiuGdaIRof2zjefhOfOp3DT2hLcP+EQNiyux5wt+bjgwzbt/XH46L+vwff8T6Jk+XgcevoaHJpagqXj29A2LA5v/fQa/PC3xmuFqGNrFht382cm4ywFqy9g5uE+PTScE4RYwM1kaZCpmj5pgE3Dza6m/vI+jVDff/9948ppnE6n7q7KDB7T8Jt+jrWC5F64Fuu/78DemUvwqHEtwHysfiYHpXeUIkf/ey+2GneEcwOmcQ4TW1WQuJEn5cxdy61AhYyKP9euU0nXofkq9gqSQeZMTa3Zh31BYnZ3Y0i+6hqMP/HyGe88Reo0zBx1DPte7Xx2m+zS0DNYVZCY1pgWmTcGUTmyMxNCpvcLsYZpLFZplIV8uHVTIuu2PxvmKxWFjssapKen62uGRcri72Sg+r9DlSPigGOodpz6KwinYfq0k6+spu9grOYrNjKo0HHEggbbbDi5XK5TB895UHHrksozlSPyZsj2VfWvdqaw7MCKBdfhuuvN4/RWVfWvdqEckdqDXSpHpHO3hN6GZbeZPs/TCmS9B0klsVOOPUiy0aAQK9i7Q8NLlYKc6bO7tE2lhAVuZ6u4855qJcLCnLBgj6QHiW5xEbxPP/1Uf3bkyJG6USqnNIdlci52r/spHCfKsGVODbKfARbe8Sjm/2wjcg7ugmN+DkoLSpFTyL81yNsxHfFDk5D0RRV8i5fg8K0bsXJOEjoGA2//91yUZhdiQXo84kfEwf9uAxzJ6Yg/+RrWzduK9E0rkZfiQHvTa7j5lnvxcew6xc55nJMz4aqoRJ1xrgrTt8oQWyR5oyvsyJLQfBXpQpFc+4h5hL1fXFsseN9O5jeecw0kVX8J5yZWe5CC0+cg/qOaoFQqDkGwimo6iyRts6XQ1RY3vKfqNt21kiFN5Yh7EdI/tIniNSpvYakoxt4GPw4/dRfWIA6OoXH6ZccwBxxn2bhr9z+vwiOzZ2Ddu2mY9V0g8WQFNq0txN6jQFauV5OLQ9OLczH7H8uA+Gos0Z7ddSILOU8uxaxhVdjzxz2owpVwJRqvHMikeODRF9RJgUf/of31euH1evR1dlIm5yOf5/o9JzLn8V4+Ml2UGY6p+nngWaf2rFd7Nn8yx3G0Zz0B2cB59LFb7qvKEtV8xaGzgwcPYt++fXj55ZdRVlZ26uDQ21/+8hdb/hIEEpw+ZZq/IPQybA3TEDZ4o2b2CNC2r1sFKZQhcXDrPwKK0ll0+KGpPgEGu5H+N7Nw9bSL8dGHpp1VB9rZIXzQj47PO3DKdP18B9BSgwOvHMCe7T4099+dLaJHXQlqNPXGOdmFmpI6TSNKQ2BJmwS4qAQltOANnw8+3nNpd8q13759aHUGlJ7qEu28uFl71onUsYFrzgRde9Koxj5Ntqiid3vnqbyzh0cQBiKiIPVB7t6wG+t/YJzozMcDP3vA+C1EE9otxHol7e4wu3SpJJnwmnV/VaNxaA7Wbi7EzRMitTiKQ9L4bMwd70DYeUqvbUfV6Gux9LuLscQ7HRdIQ12nDmnIT2jVh8qcoStOtzTjVN9kay0whT1GM+HSTRK0e6duujDc1ItMWlrRVwwXOEQsCAORqEzzj5UNEisJYhpMnVMsXItt00tx4zKfceE07ity4P6wFGWn7Pu8WPmfGXjw/3vQOB840AYpltP8qSBxtsLJkyeNK9El0mn+nDkxevRo3e6Is3uCh9yskYEcD1Ba4oc7uQEN3W4P5Ua2x42GkrLTvUVhyPDkACWlqDLOhd5F1QYpUlgG0840lnkwUhskQVCh1zerVVGQaITKFjN3X+4MTgX99re/rf/evXt3l3YiJszEnJHE4QoatnZr3IrzsfqZRwNTn+/fiI1YiDVDNuLh6UnaOxqwdfEGJP7f00apG35Yiuz/W4AxCW60F8/AwjOmDN2PjTumwxEXr1U3fry28S7cW7MAGx+4HulaQ76xagseWx+PpQ/lIGlwHBq27wEKbsBk7dmyrbNx1xPGawwCBrYL8ZiD07ezEN/ux9Ga1+D9X31bQaIdxZSWInBEIRTOzqqrC9zgc/lZTqC2ODD8EIZYK0hcB4mVQOQr8FrDyjpIVJKYL1jhUTGyrhwJAw1RkAQhPP1OQWIlYC7Q9+abb561zgyVo+uv15SL9HT9/M9//nOXSpI5W4j79Hz00UenWuFUlsJ/kPOxtnANSgvugu+BQhSiADtTduOGE1ux/cAxVGTcjFWX+1Fa0YikyVcjqWwdGr91AxoWF+CRs1rlK1C4MxGb5t6L5/NXY+fCJuzvmIVxJbOx5Bdu3L9pPdI+akBGehu2/q4UxyoP4Pnv/By73dsxu5MeJO+6QuQUb0D7d5ei46EbsfzY3fiPBxPxD31YQUrxeJGb2obyHUWoRCY8nnSkupyaDuRDTRrv8anA/dpUQ0FqLUfRjsqwQwk9oSAxHfaVhSJZ2ZFwSw8Igsm5oiDpa85oZblZngtCtGD+oD2nioLUY6nx0ksv1TcY5AJfVJBoX0HFqjvliFBu9uzZ+nBIKJzyOX78eF1BYi8Fhyb4O6Jxc2MLLveQgEHrixvXYe/xNMz47mLc7D7TKLWwRHugpRHV3Q1ZHO9Au/a+CwcD7XonVgP8Hdqfdzdg3e4mpM1cgsW3ZPFGN1ykz0Jq55pn9R3o622rOt3gNKg38Og++HzFaE5waveKUH64WDvXlKdWJ1Lxhvbbh6Ly8L2CAxEqRqIcCX0FzuZhwzPWUBET5UiIBWxEqNIjPUhXXHEFjhw5oq9y+q1vfQvFxcW6AhOqHBH2GPzgB2dYKOswoz711FNnrZJqKkJUwDhcN3bsWH0tDBK+1T4YKza/hJzBTfDHu4EDM7A9cScWp/nhHxaHqk1bEH/bYrhbmuBIbEfpA7vg/keuJXMXzu7zWYHC/bMQf7wJ7RclouOPy3FP3WKsX+iGv8WBxC9K8eDziVixKB3+E/GIO7IGN5bMws570nH42RuxfL3xGoNAD1IBfJcUYuV0oOmLRKCxFAXf6+M2SCmZyGyr1HuQMp3a37oUZE5uRWVFm9HDxFE1H8oTjB4k1KLYVxJ2LZhY9yCxYGYLNlaVgNUeJEGwQqx7kHoC5j/a2wlCLOBMYK6R1WeH2LKzs/W1Kgh7e2pra7usMGiXdO211yIzM9O4EoDrXJSUlJxlW8Tn2WvEXinabLCXiRWqaewantMGqkjW/tY3nGUg3ZlRat6P12Px5NMbnPorPkb81HoU/MMWZGhPVp3qZTINZg3p5GzkjGxA6evBwzmLsGrzXJzuL6vGztuW49QWickZIe8cWIiCJAhdIwqSIISnXyhItCPiTKGrrrpKV3bCweG3vLy8U0oSn2evU1czjfg8h+5o6McKlcpRz6IpOY8Cy+/vYudnQZmeUJBYycRqWEsUJCGWiIIkCOHp8woS4UaDzMgVFRXGlfBQ6Zk+fbr++8CBA2GnYdMOie9mJcfKKJY7Tws9S6wVpFgjCpIQS2KtIMW6AUFEQRJiSb9QkARBhVgrSNwUlhknlusg8eDyE4IQbWhGQPvM/j6LTRQkIVbYUpDS0tJ0BUllfxzOOmDm6W6NIkFQhTZltC1j4raawNnyZe8NW79dyYZbKJKKDfOFSuuZrXrCCoZ+UMmcgtAdTOM8rCpITJ9mz1C4cr8zBYnlvtljr5Kuma8oay4ALApSEHNXYdvfA0/+3XLsMi7h/o34t48W4sdiwaGEVQUpuNwfxJYtD2YWqzCjqMgJghWYYFXSGQt3Dr/yb1fwvV29mxMAwsmGg+7S3ybMcHLIEe3DaqPWhGkz0nKfDYhgzHylOi2f5hNmA8IOdJ/LwoSDPdBc/kU1H1vDjZW/LcQK4+wMkldiW2Gnd85k5wY8tnrDaeWIaHGltbGEHiK43Nd7kJjJmNmsIj1IQqxhAWf2IKn0cPIIV5GEWyiSFYhqK5m9RnSXf8UGSYgVVHBUbJAoE0m5z4qCE2Def/9940rATV5XVdCYr5gfTFmVHiTm60suuURX1A4fPmxcPRPev/rqq/Vh9NLSUrz++uthw8uZ0FxgmAocv2ckpiPz//VXWDLlYsSdeA37qrIw59oktL+7B8/8Ph5/t3AiNDUUjX/cjursAuSNaEfN3jXYHr8YCy7R7mgyawoexPPGuwLcj43PAAvvKMWKzSuR53ag8UQ7/vK72bjvv4xHzmHC7cagabpIqasL7HtoYTcGqz1IweX+oOCuTquoVFqCYBXVgpjpk+lbNY12vxp717ACUJUVhFgTabnPZ0KHn5mfeN3sfQ0+QunsGeYrO/WGqRzxLxsfrNBCMZUjKj2sIDnhh+vxddZzxWts6LOxxB4p/uZfynXHJWPi0XigEOu2luE3D2zBYX8D9t72IN7E+9j71Ho8/0YT0qc68eCWw/A37EXBAw3ISD0tc/aehnFwDNXCc+9SzDq5FTNmzsBjFVxp+NyHa+XlZwHNul6agsx5+fB6tWuTNUUoxQNvbi5yzXMTlwvh+xCtE1zuR2XpUiZ6QeiPdL9WliAMbLhNQyjsleEEHSog5hE8pGxi7pxgHpQJhYpOd3UI380lYqjkzJw5Ux+1oJLHxYFZoQXDXiXuvED3TLjP4YwZM85aXy8YKkp8p/k3ErZuKESFIwsFi25GnnGNuKdOx6zciUCjH2eWMGXw/eemTmXOYKj2LdsDPVjtXwyMMip0N4bhrdxxoQjVcPEmig6Xo5g7MFSgx3ZjiMosNiJKkhALmK5ivQ4Su/hloUihP8L8wQo9VrPYeoJIhtiuvPJKvPbaa/rvcePG6ZtLdxVmKkjf+973zlLGuPxLUVHRqZ0WTPj92HtEWyUOtfPv0aNH9fd3913/Yd3vcE2ilrcT2rFr8XLg/25EXsdelDTnYPZ4P5o+iUNiXBlm/4MfG5/JQ8fu51F92XzkxDUZMgux5oxl+1agsBAo+IdqrP0ld3LwwzEiCVVb/xb3rIv9li+9jrkbQ6u5CwO0vy7tb53Ri6Rvx4CilqkR78ZgaxabTPMX+jI9sVCky+XSd3uOBb2hIOX9+zYsxZO48f+cYeqJ+T/biJyDC3GvVgAL5wYDRUEKXmB4zJgx+vOd9WyZUIn69re/faoXicoR7ZC4o0Po8B6/H3uYuP8nFSOtTtT/shcpku/a2W4LpKvrJHAvHjf/12JkndqUwY/Dv1qCR3YapxoZkzJQ9VZnbxAiRRQk4ZxlIC0USWVt9OjR+vNsIStPfZ6UgxyUovQt49zA3OPvrs3GBaHfM1AUJC7HwW2qaA/FHiIaXHcHlaQ5c+boFeS+ffs6VY5MmOeoGH3wwQf6sCAVJOHcQBQk4ZxloChIVI5YQLOioAEs8xW3zAnde/BsxmP15p8hPSEeSXF+7Pn5jXhw0kZsxEIsf38t1n8/C/FoR8MfHsR2992agnQPSqevxc3Yjlc75uKq9HjEj4iDf+8a3PiLeKz+f4sxcQgQ17IXyxd04O4d0xE/NAlJHQ2o8iciQ2uQV7+4HMvrFmOt9u4krdVbXfQIFv601PCPEAnOyZlwVVSGHRqIhIGiIKlCWynaOPH72DEMF/ovdhSkqBhpC0J/hS1TTuvtTYKVIy5pwMzMadW8xgI+PIPgGNqEF+fORsF+IGfOfGpl2v95uO92Nw7fPwMzvBtQ1j4aTsTBfd16LHDuxWM/eApHh8Wh6cW5mH2rptxMy8P8McD7uzdg/c4yNKVkIY8zaj6vwiOzZ8D3vqZmFc3GjCer4J76fe3dGfAX78Ge4ka453gxIC0QUzzwpOg/4NF/aH+9Xni9Hu2XdsapyDzX7zmROY/38pHposxwTNXPA89y2vKpGTt81hOQPWPGjmAZ5ikOr4lyJKggCpIg9DKcpkwljcqRCQt19sx2txCeTkc72Ifb8HkHMMScSXQRHIOB9mPaz/oavH2kRvsRj/jBfmBEBtKS+UxHYKJMfQc6tGcdI7IxfVYOJqIJfnMST4cfZdqftnZN7tTEniHau/1oeP0ADhzYhU2/OXMllwFDXQlqNPXGOdmFGq7FkpKGVP1GAmcfa39a8IbPF1inxaXdKdd++/ah1YjTan3WTrP2rBOpYwPXnAm69qRRjX36jB3pnReE3mJAKUh3b9iN9T8wTnTm48f/98fGb2Egwu737ntpYgt7kNj9yxVcTXiNw3Mq3cIBtmoVcwdyflmIwm0rsWx2hnatCVXPF+CRA0lY8K93Y0TgwTNwuNzImjkZicZ559To786+czEWa0fB5EQM1PZ5HdKQn9AaWLwuISFw0aSlGacmIbfWAlPYYzQTLt0kQbt36qYLw029yKSlVVd6BUHoPXrcBonj5aoL/9nFfUUO3B+WouzUtEov/nnNJfiXu//FOBf6GrG2QQq3knY0iNQGibNoaKBNuyOuzRQ85GaL5GzkjGxA6esRhq8LA+9OsfpuIeqIDZIghKff2CClpqbqMws4nZIt94i472lsvJ8/5mP1M6sxf9oKbNy5Eztf2o31/58b7oVrsW3ffuzftxMbf5Sjb+xXuLkQu7dpz+ovOM3025fCO11TlDSZnZR5aQHGyR43UYN2FAGbjLPh2iImpr1FwDajd6Gizkqmt+GQGu2OqCRNmDAhOsoRqS+zpsC8FaFyRKy+WxAEoR/RYz1IXLuCGhwrAU6j5FRNtpa71ep+8iwKB92Ogoe9WFuotW1fdGBxfhu2/q4UxyqHYNYjf4+kslJUIx050/xYV5KEZe7tmL3MZ7zgNIFpzhvQ/t2l6HjoRiw/djce+3EC7rtLepDswmXic1PbUL6jCJXIhMeTjlSXE7XFPtSk8R6fCtyvTTX20WktR9GOyrBDCT2xDhJbsH1loUj2BpBIV/IVBjbnSg8S80fEjWZBsADLeK6ZpdSDxAwW6xb02LFjTylHhGu8cIfotLS0iNyOG+IO/GDd8eIGrNvdhLSZS7D4lglnGYtWaI80NZytHJ0m2Hi1AwNjl5vYE7pMPI7ug89XjOYEp3avCOWHi/Vl4ytbnZaWiWf66MxQmXZDvB58UOkOhYtAmvc5Y41/I8VO3lCVpWIkypEQa+ykbdJbsoJgFavpLThvnDdp0iS9B4nrrUSyeWEwnH3DSifciqYkIyMDf/nLX87S4DiUwGXfw7p76xPY+fcp8DcBifEN2PCrdixYlA7/iXjEHVmDx/wLsHK6phS1JyK+ZgPmNt2AQhSg4GFDPghzoTzfJYUBmS8S8fn7xbj976UHKSqYy8RD++vU/taZy8W3GT1MXCXeh/IEowcpgmXimb6YPjiGHKw4dGZYzeeoeJuwZc0eTl7jfk1sSfCZYHsHXuNzne3JRvskLkzX/VpEZ0ObIsKWMd8faQ+SIFiBaYuFudUeJNplsMeGeUGl3OeEAuaL0H3QIiE0X4kNkhBLrNogMX2yzmCaPG/cuHFfUZCZxKrhNCsXvowbB4Zj1KhReqYKHlLjkBszNq91i2k46nfDXd+AhlDj0E6NRRdh1ea5SDfOOG12523L8ZRxhuQMZKAKVRE4L/QeVJBoi6OSPlkBMN0F785sBVYCLMhVJhRwaI1+Zh6xMsQmCFZgGmcas6ogMU0yXauW+1TMmK9U8gaXtGAFZMqKgiTEEqsKEtMnG8x8vsdskILtjmiISsfNITdB6IqBtNWIIFiFjUwqKzKLTRA6p1/MYqPdEVsc3E+HLRBRjgRBEARB6KvIXmxCn+Zc6EHiMB8PQYg25jCX9CAJQufY6UESBUno05wr0/xVbDUEoTuYrmiHJApST8H1+HJQese92GpcEfo2oiAJ5ywDbR0kQbDCQLNBYn7iDFYqhqz0eh5jPb6Cu3DWYjJctHh6KW7sZA0+ofcQBUk4ZxEFSRC6ZiApSMxLWn2lz7xjuDl7+uOPPzbuhuNyrNj8U+S5HYD/MNYt9WHMv67E9WnaeXMVtvxsJ9LuWoD0hHgkxflRXe+AOy0eHYfWYW5DHnZOdyAu3g20voYNPyxDzn9QQXoEeGItlmUlASeq8fy/lSHjES8mw4+yrQ+iYdpK5KU40N70GlZ8/178TyTeHBCkwOPNRSqXeNnRjKnzpqCl2Afu59wtKSlIqas7tSwMd2SYiX3dbujcL4y0BUEQBEEFzoCmcsQlP2pqanDs2DF9EVgqV91yx22YdXIrZsycgUdfbEDcPUtx7ReB84L9ccgruBKOoU14ce5s3PMqEF+zBLNn7oJ/cg68mlKGmk2YPXsG1tROxA2LjIVm596HBRl+7PnjHuw57sa1Bcew5A818L+5AXcNWYpZw6r0e1W4Et/ICYgITmTOo3KkUVuDutZKFO0oh9kPGLoFlXmeP1n75ikeeHNzkRt0PhPV2n+xJSoKErV5OeSIxdETiH2QIPRtRo4cqfcCmGvu0TidShJHMNiDFpYLzgfaA70MZUcOo+lLTekxzhv8HVxtU3thu77lUdmJDnR83vn+gg0n2xFnOhXvQNyJBpS9cgAHdm3Cpt9zDweDodr7W2pwQLu3Z7sPr1UZ1wc8bajcUYzyw0XwndVlFLTDQosLKTwfG1BGnQkubtWAosPlKOb9Chc8ualwZk3BlKyZyNRux4qoDLGRnqrMhIGDmaZkHSRB6BzmkYEwxMaNzrnydvAGzsxb3MbqvffeC789z6h8rH3qHrhbmuBIBErXbof7zsWnzx/Wzn9g2BU9UGjsxLAChbvd2P7HJCz7Vjwaj7cjfkQH9v5Ye/Yf+awP6ZtXImdwE9oT4lH91Fzc+8lq7LwnHYd3bEH8HPP97Vi3dCGef8/wy4Dn9O4KOq5M5M+bAmhK0z7MDOywUFusKVAwhuI09HNNodJ7kfTtGAwFK+RdXSA2SMI5iywUKQhdM1AUJOahlJQUfVsr2h2Z9khUmLrbycEkw5MDlJTC7NAJPe8UQ2G6Z2sG8FYVQvuW3FfkwP1hKco62ZEhovcLMUcUJOGcZSApSJyu7Xa79QqPC6uq7AEnDCwGioJETCWJYeZB5ai7fUBts2QVVmE5lq83zoV+hyhIwjnLQFGQqByxRUyliLN0kpKS9G15uBdceC6E94mtWJYVD3zegF0P3YPqG9dicXYSHO0NKP2ve7B83CpsxEIsfNRcw+V93FCYDUdiHD6p9mP0qCTExTVg6+IH0Lb89Mycf1q6EPuPGs4IUcU5OROuisqwGzVHwkBSkAjzEg22id/v1/8KQjhkFpsgKMJp/tyUtjdhJWcqR2wVMzN/8MEH+jWu+RKWsZdjQcph3MMZOU+XoePqB7BgfBWWa+cznjiGrJsWU0vj/xra36HagThNOWrE9tk3ouRLN9rfeR6b/ns7Xpt55sycSzIzdSeELkjxIDDhJgUe/QenMHvh9Xq0X9rZ5Hzkn5qVwxk8vJdvGJUOx1T9PPDsGTN2+KwnIBs4F0zY0KBiJMqR0BMMYuXAQpgtWKuw5aIiJwiRQuWB6ZOKjFWYPp1OZ7fbfHSlhAwfPlzf2VkFvrNb5caAvUx8NtgAlRUAe2bj4+ONK11w/iDEfdmu20Y01LyNtz+JO3WO4x1od8TBrf2MG8J/NcxZOE0N+kJ3L25ch73H0zDju4tx86Vnzswp/8sHgWeFzqkrQY2m3jgnu1CjG5GmBYxKkQAXlaCEFrzh8wUMSl3anXLtt28fWrU0SapLtPPiZu3ZkBk7OtXYp8/YCd87r5IvCMt9tqzt5Cv25qjAfGX2AglCX4OjFma5P4jdTpwBoDLVmTL9a4r03Vj/0nrt3yAKVuPhe79tnAh9EbYaVdMnh6vCznAJA+VUjauZryKVZYXD54OVMTY8qDh1G+53jmBvew7WFxZi2wPLkHd82+nzh7PQ8Lsn0fBOIxwz1qKw8GZkhOh7s25aguuvSkcidcjXfdh7MhvLFi3G0kUFGOk4rbAJnVOHNOQntOpDZU6tYD2DlmacMh9urQWmsMdoJly6SQKnrAduadoThodOVW5p1aedd4dq+WumT5VhB8K8wbylAt1VzVeCEGuCy/3zUlJS9BymmtGs2iCxxcJMqepe97ix8rc/R8ffFeAR48pp3Mj2uNFQUnZ6NsJta/F/04rwT/++07gg9CWozdNgWTW9sAcqnCx7l9ii7czOqTvZcFCW8P2R2CCxp2jUqFG63VF7e/sZQ26REDqb5qzZNZNykINSlPrdcNc3nDEbp1tZIYAxJVnv6zk11bh3YTpTsUEy02es8lU4QmWt2CAJglWs2iAFp88eNdLmWhZsJXORr6NHj0bm4fuexs6cYUFLvT8G3HumEeqWCavw8PSAoenhikRc6UlC+7t7sOa2B/G88ZoAppHqY3A8sV43bG33t+ON0p/iH0VBsg3tKKa0FHW6bDxnn9TVBW7wudPrXYSvZGJtpE3lhQV0rNywMouNShIXxGOFR8UoUuVIGLioKkh9CVGQhFjSL2axjRkzRvfg+++/jxEjRuhj0Gwtd+vpnzyLnRf/GnPveR7X/3wnFgytQfzINjxw43KU5a/GztubUOifhRtObMX2A8dQcSAei5+5AQ2zO+tBMjYafKodC+7s0N/R8ION+MeLnhUFySYpHi9yU9tQvqMIlciEx5OOVJdT04F8qEnjPT4VuF+baihIreUo2lEZdigh1goSe3hYwcRqSr0VBYnQL0R1WFAYWJwrChLzB8MiCNGG+YPLQagoSD1iYc3VTk3liHDI5LPPPkNaWpqlTKEv9e442wj1jWBD08n6o+HhMvGmYWtHR+CaYIs63eA0aGeco/vg8xWjOcGp3StC+eFi7VxTnlqDlpQv736BN6aPzgyVadRMQ9HgozPDz+D7VLb4Nxj2Zval9YaoGIlyJAxEaHcnhxzRPuwo3j3SgzRhwgT85S9/OWvM+tJLL9WXiQ9r7PeTZ7H/6uFBS72vAe45vcR7w8YlKL1iPRan+eEfFoeqJ+5Cwy0bkdexF2sWP4JdxmsCGD1IQcvEI8GNd/b+K34gPUj2SclEZlul3oOU6dT+1p1eCj7Qw8RRNR/KE4weJO7o7CsJuxYM7YOYvkKVmM5miDEdUfEOJvg5ZhYq6j3ZnW+1B0kQrHCu9CDJEJsQK/r8EBuNT1lJcEjNVJK4YjArLF4Li6YgFQ66/ayl3iMxLM37saY4TT7d++Cv2IAl/3ZaZXJP6nz5eKHvEOshtlgjCpIQS0RBEoTw9AsbJNodsbKgQjR69GhdUTKH3MKy6N+xatD/kaXeByiiIAlC14iCJAjhsaMg9dgqj7Q7YiVxySWX6FP9I1KOyFOiHAmCIAiC0LP06DR/QbDKudCDxJly/CsI0YZrZrE3XnqQBKFz+sUQmyCocK4oSCqZUxC6g8oRbTlFQepd7n9mI3DHQjxqnAt9B1GQhHMWsUEShK4ZaDZIbGxw0g/3KmSlF3OSV2Lbf3TgxoKzV9ULZkVhIVDQ2dp7Z+Jdtw05xTfirs3GBSHmiIIknLOIgiQIXTOQFCTmpSuuuAKzZ8/Wl4fZuXMnPv74Y+NuOC7His0/RZ7bAfgPY93SGuT9RzYciXE49ocyJM3KQ7qjHY1lG/Avb2TjnxdOhANxaPzjdlRnFyBvRDtq9q7BPUfysPb7WUiCH9VFj2DhwVkofCgP7iGN8H/egdKzFifOwf3PrMS1iVxr721seNGJZbdP1vxQhmVz7kJF4KH+QUoKUurqTi3JEm7XhLC4tPdob6nrfgm8swnxQ6TYUZAGO53Oh4zfSnCdGY6DC0Is4OKP/bn7nZWXuf+gIEQbKkgcYuOCp/0Vbj/VXQMiWDkiXB8tKSkJx44dw8mTJ/VrXXLHP+CfxxzAt/72LjQmXo749sGY+J3B2D57ITqW/jMy6ovxylsnMXL6N5D2pyM49Kc9ePO8ccid2IKFz53ArckVyL+rDitXXY8h/1OMQ0cd+PrMDEyblI0vd34LN/7vOmQVfBMdz25BseFkgMuRNeEdvPzqcYzKyoH7f27CIfetOLH5FjxVaTzSH0jxwJubhbFZWUjDUZzMmI85EzSlseIIjl+Qifz51+BK7V7W2K9w9MhnuHTefFxzZRq+qj2CzybkY/41V+pyR9ovRf68aZgwQXs2oQUVtYH18fI9WUhoOQpnLuW0e1mUPYmM+fnwGG4ecVx1hh8+GDlHf29WVgJaKmrD7sbAXkeujxe6DmMkDGLCYyXEjGYVFvyUU5EVhEhg2mICZyVgFcqw8KWSosKwYcP03h8VmKeYtwQhlqjkC8I8ZafcZ77iXxVU8tXUqVNPKUcm48aNw9y5c7vP3xdobrUHqtCyI4fRxC0Omxrg0/7Ea0FoOnoAB17Zg+3PFqJu6nTMyp0INPpxZrP/IjgG+9HwuvbsgV3Y9JvncUKTbdfXr9We7Gzx++R0TM+9GjkXf4TGbnS4Pk1dCYoOl6OYux9UtJ21a0J1cRGKeRzVTlKmYIqLV51IT3WirWIfuGGCc2wqnK2VKCouR/kOTV7vekpBmr4FFUcKLgKOFmv3eQTe3Xy4SN99oRraC0P80FahuaedF3Wz0LAKwenzvAkTJmiK1VdKGhYTZmJiot46Vs2oghAOFuAcwmX6tNoLw/TJgpwtTJXtO1wuly6r0jpnJmN+4kF/yBCbEAuopLDstTrExnzBvNVb+Yor45t5IpIhtmnTpmHOnDnG2Wmqq6vx61//Orw/RuVj7VP3wN3SBEciUPrwYWT9gCZDj8C9cC3WL3TD3+JAYkcptn+YgxvG+9H0SRwS48ow+x/82PhMHjp2r8GGwYuxcrqmULUnIr5mA5a8nhOQ/USTHdGO0ltvxIPB6x4n363LOo77NQ0gDo2/uhG7snfi7vGHcdeNy1FlPNYv0HuR9K0QAsrNGbsm1EIfMUtIRWtFLVLn5WtKUmDfzdYscx9OY9cEVyby503RlCVNuSkBZvK3drft8F5NERqM2hY+60JqWyuGz8sFRds0RYlKUbAfipF75nv5swusDrEFl/vnjR07VleQVIYAmDGpIIkNkhAraIP00UcfKaVPVgBMo5S1qvwTtiJY8KrImsNqbKn3uA3S/RuxEQuxMGhKjcyyOTdhGqfCYlVBMhu0quU+3Y1WvopEQaLMzJkz8Td/8zfGlcDaer/5zW/0jUgjIcOTA5SUdqKYZCDHoylOJYE7XT+nkZyNnJENKH3d3H8hAxmTqlD1lvZzySoUfjs9cJnU7UTB4xUhzwuRcXqbKrtYVZCYn7htFdNnVIy0W1tb9QwjCNFmIBlps+LhKvN8noW/8ia6DxSiEAUoeNg414h0lo3Qv1BVkPoSkRppBytJVpUjYeDS67PYREESYsVAUZCoHGl5Ue/aZeuFBqh1dXX6eXguhPdnPizOToKjXWup/tc9WD7p5wEF6Y8rupll44b3ifVYlhUPfN6AXQ/dg+ob157xrtf+ZhVyDi7EvYX3Y+MzwMI/T0bh5Q4kDj2Gspp0ZF3iQNyJ17Cm4EVkbVqJvBQH2ptew2NL78Wu44Yzwlk4J2fCVVFp235iIClIhD2yzFPML6x3BKE77ChIYjgkCL1MsHLE4UROXf7ggw+QkpKi2zKFZezlWDC+CstnzsCMJ44h66bFxg3g7jtnwV+oXZ/5GA53pmfNvQ8LUg7jHk224OkydFz9wFnvcgxzwKHb4moV09A4anxIbNmO2Tf60J4aj8YDhVi3tQxV9y7FrGFV2PPHPajClcj9ju7CuU2KB54U/Qc8+g/tr9cLr9ej/dLOJucjn+f6PScy5/FePjJ1I9bhmKqfB57ltGmv9mz+ZFpkaM96ArKBc8GEdiFcA0mUI6EnEAVJEHoZtoq5XAaVIxPa9fFwOrupIM8fhLgv26FbOBzvQLsjDm79RmCGTthZNvGOU7INNW/j7U/iznqXU1OMwElCydo9XtdoauD8nzL4/nMTKhxZKFh0M/KGOoCWGhx45QD2bPdhd3ng2XOauhLUaOqNc7ILNbrhappuVAokwEUlKKEFb/iMGTsu7U659tu3D61GnFbrs4GatWedSB0buOZM0LUnjWrsM2bsCILQO4iChPlY/cxq7V9B6B1o0M1hNc4MMmGvEhWnbruF3zmCve05WF9YiG0PZ6Hhd08GFByNDb+vQvrCbSj87cPITtIUnGTjhkmh77TsA8uQd3zbWe96ra4DGbcXovA/rkSSIRYgGzcvWoBZk8boihhe2o6q0ddi6XcXY4l3OlIHyKS9OqQhP6FVHypzJiQELpq0NAdm95DWWmAKe4xmwqVPatHunbrpwnBTLzJpaQ27tosgCLGnx22QzMqgR4homXgv1hbmoLTgLn1djHDIMvE9z0CxQWJPEbdQoN0RF14NHnKLBPcVOXB/WIqy4GnGOt3Msrn/qbNkuzyHG+76hlMKGAmd8RN2BlB/x5yizN/mdOde5lywQWLal8WGhVjAmWhcVJRG/SozLntUQZo0aRKys7Nx6NAh/PnPf47MwzN+jMJ/+Q7cQ7hK/DosqcvDzw0j0c3POTAvaOn35R/Ox9oIl4lf/qEX67Xz+HY/2k9UY8ONoQpS18vE3z7nLmjtwX4DbVlY8ZooLxOvuNQ7CfVDpAykWWysKGiczZ6jpqamiJUjYeByLihI5hAzDbUjbWgLQiSwQ4blr6rNWtS2GukuYU+YMAE333yzrs2xdUwPsxLojh88/AC+tmsWbvzfjUi6PB4nz5+I687fjtkLK7AwZOl3x+F6vBfRMvHT4ckcjiM/mYPbNyXhmu8k4Z1fvxCyN07Xy8Q/24+WiedS7rlZY43l24/AcZX39DLxIzzw5nu0e8bS762pgWXj9SXjj8OhKVKnlokPWer9yPER8Hi5FDyXem9Bqr68vLFM/MdxmHZ9YPn5hJYKfDXlTD+Yy89Hskz8QNpqhPmIBqicusy/gtAdLHc5HNuftxrhmkgMA2cbcXSBYZJDDruH2TjlDDaeq9AjNkiXXXYZCgoKTnkyPj4e1157Lb7+9a/r5+GIH2Iampah6s0mBFaJZ1/P2Uu/fxLxMvF/xmc0YD2m3arvQKdFyzmyTHxdSRHKDxfrS7ZXakr0mcvEN6N8R7G+THx5i6ZMZRnDB650pLpw5jLxIUu9n2WQGrJMfHUxDVKL0ZzgPMsPsVwmvr/DyqI/V3aCYBXWC2wEsSIjVJbkkMPuQRMFzghWVY5Ijwyx3XTTTbqSFEpNTQ2effbZsDZJbu8TWH9HSmAp+C9K8eCbWbjbWAQv54HCM5Z+X/fFAtwd4TLxjzTdEDj/IhHuwVVYNzdkiC3MMvELblyO943H+gN6L5K+QrsvMKxmLhPv5N9WtDpb4UpwobLWdXoZ+B2VcBlyp5ZzD1rqvahlKvKzqE5xSfl9oEZ1apn4L4H0bwWULdPNYD/UpIW8lz+7YCANsQmCVVju9vchNkHoq/SIgsThteuuu07vQjXhEMLWrVtRX3+WVWknnLkU/BmELP1uaZn45AztzVWo0ryQ9+P1WDw5PnBdw1+xAUt+1SjLxKvg4v48mgIWhe4hUZAEoWtEQRKE2NFjRtqXXHIJ8vPzdSWJyhGXiX///f7UDyP0BqIgCULXiIIkCLFjsFYBPcTxOhUoZxppdwfHAnlwf6ni4mIcO0YDIEEID420ueO4CmbloTK9k1CxISryNMw2x8IjNdIWBKuYacyq3Zopp4KZpolK3rCbr5ivVWQpZ/rbKnbLEsoSFfnejCs7/rYTV3bCHM24Om/ixIn6W6i4WC3EmdC5j45sGCjECs56ZOvY3KPMCkyfVOCZtlUMn5m26S4Pq3AiAvMTja45jZmHFVQLFmJXlqjI25El/THMpDf9zXTNdGa1B4n5ghUQ84ZKvuIWOJRV6RllvqKsSsOHS2HQv8yTVusrNrbod8oyX1qBlT3dpr9V1mxiOcbwqpQljCvGNd22GmaWO1yAViWu6Cb9TQN6lTDze/E7M8xW0zj9zLiiv63GFRUclr/RiKvz0tLSdJ9b9QRhBuO6LaprDAhCdzCxcj0gFgxWMxkzODMZCwaVSojDY6yAVGTpLv3MzMpCymrBJgiRwnRuVUEyW8lUNqymb7NXgnWGar5inlTJE8xL9LNVpY7YDTPztGp5QOWMlbWKrOlv1TraTlzR36YSbhXGFd1VkbUbV5RXLfeD46rHV9IWBCuIDZIgdA3LXVYGYoMkCNGnR9ZBEgRVVFoAgiAIgmAX2woSu6JMIzBBiCZsHavYDgmCIAiCXWwrSOzapUGUDLEJ0cLsNaKRnwwdCIIgCL2BbRskQqMoKkm0txBFSbALFST2HFE5UjFM7EuIDZIQS8QGSRBiR1QUJCK2IkK0OReU7dgrSFlY/9LdODxnCdYYV4SBgyhIghA7oqYgCYJwNlYUJPbEjh49Wq/wuLQB1/HonguR7ZmEhpIyyIY4Aw9RkAQhdoiCJAgxJFIFicpRSkqKrhRx7Y/ExER9n8LuF5Ybj9XP/G+U3lGKnM0LkJ4Qj6Q4P6rrHXCnxaPj0DoseT0baxdOhANxaPzjciwsuRobf3w93HGN8J/048C85Tj2xFosy0oCTlRj5Q8X4qW/GK8XYoJzciZcFZVhN2qOBFGQBCF2DHY6nQ8ZvwVBiDKsvDjLM9xiaVSOtIaKrgyx54h/aXvldrv1WaLhlask3HD7DDRsaUD6wlE4kH8TNky6Fdc03Ynv3BGPG+77Oi5+ox7v/GkP3jxvHHInxsPx9VyM3D0bN/2wDpffnoMvmidj3rwhKN1/CNXnfx3xn1bilUrZJ7FbUjzwuGpR25YCj8eF2loXPN58eLIS0FJRC9fkfMy85kpcmdAC7RSZ8+bjmivT8FXtEbS6MvDNqzy48srAs9Cena89m4ajOHLcgUzPHEzzXIkM/bzr1YCpIDH9yGxPQYg+sg6SIPQyXHGW2wlQOTJpa2vTN3Xm5IeI6WhHm/an7EQHOj4/PeDmmjods3InAo1+sKr97HO66dZ+JSKOK3TEOxB3ogFlrxzAgV2bcLBS9kmMiLoS1CAFzsku1JTUaQpTGlL1GwlwufinBW/4fPDxnku7U6799u1Dq9OpP1Vdop0XN2vPOpE6NnDNmUBBUo19mmxRBWNUEITeQBQkQehl2MPESQ7cf8iEPQPR26LEgfjRWZiVlaifPbVxF/yz1mPnthuQxB0bCn3YezIbyxYtxtJFBUge1n9XLu9p6pCG/IRWfajMmZAQuGjS0oxTmzC11gJTvPB6Z8KlKb+Adu/UTReGm3qRSUurruwKgtB7iA2SIMSQSG2QuObTyJEjdbsjbpRIeyRzyC0aZHhygJJSVGm/vU9sQ957y7FwVx42/kc2yuYu1GfAua/IgfvDUpTV6yJCP0BskAQhdoiCJAgxxMosNipJI0aM0Cu8pqamqClHZ5E8HysfLMDEeD/e/t2jeLCQapPQHxEFSRBix3mTJk3SFSRz9owVWPgPGzYMn376qWUjQWZsztShbPczdc6Gm5jSkJX+tjoMQT+z0qJsJBVXMCyMWJHR3zSgtUpSUpLuLg+r0F0OxdBtq2HmDsUcwlGJKxqBfu1rX1OOK+7Iz+9MeavrZZlxRVmri0aaccVvzV4ZqzB9Uo5uW4XuEn5r+iPSdMZnxehWiBSmF5alVhWkiy66SE9nTNtWy33TZo75SqUMZL5iOaJSBrpcLr3sY3itliUs/1hnUdZqWcJhcLrdG2WJuVOFSlwxvAw3/a1aR1NWJa6iUUfbKfcpazd9DtYi/SEW3lY/POEHpBwDoLJQJOVVKlxCWUa4ir8J/Wz1w5swrCofntDfzCiq34thVrVLoZydilelYCD0N7+Xir8p2x/jivBb8x3dzWILhs+ppmlhYKKiUDNdqpb7hOmU8qrlWG+VgWZ9pUpvlfsDsY62E1cMq2pcMT+ZcSVDbIIQQ6wMsQmCVVgJscUsQ2yCEH1kFpsgCIIgCEIIoiAJgiAIgiCEIAqSIAiCIAhCCGKDJAgxhDZInPXDQxCiDY1gaUwqNkiCEH1EQRKEGGIqSKqzbgQhHFSOOOtGFCRBiD6iIAlCDJFZbEIskVlsghA7xAZJEARBEAQhBFGQBEEQBEEQQhAFSRAEQRAEIQRRkARBEARBEEIQBUkQBhB5/74N2/49D0j2Yu2O/Vj/ozys+u02rJprPBAJc1dh229XQXuLIAjCOctgp9P5kPFbEIQowxlGkW5Wy+nao0ePxte+9jV91lv0Zr65sfK365Hzmy3Y0FCHuvK9qLv1AfwDNuGmn/wOddq1Q7vr0GQ83RXedduwzPlrvPA77R0Nh7C3tjsJIdZwFpvKZrWCIHTPeZdeeulXzGTcvdbqWi0s/DmNmZnTamFONy+66CJdVmXX3QsvvFDf7ZeyVncppp9ZaVHW6k7DlBs2bJj+vVQqME0h1cNMeasMHTpU/27cXdlqmDnVnOvxMMxWd0imm/Hx8bqfVQpiu3HFdEa3VeKK34zuqsQVw0w5lbhiGmFYmacimebPSi45OfnUztkJCQmor6+PYCft8Vi9+WdIT4hHUpwfe35+Ix5suR8bH7ge6Q6gsWoLSj6chb+9Ngnt7+7BmkPpuBll8F97M7KHtKPpRIeWLhrx4uzlOPbEeizLigc+b8Cuh9ag4/srcW0i4/ttbHjRiWW3Twb8ZdgypwbZzwAL7yjF/c+sxPVpmkPNVdjys51Iu2vBKb+sX3EjnvqfgC+FM3FOzoSrohJ1xrkqTOMq6yBdcMEFuhzTtkq5T3nKquy2znylWu6b+Ypu92S5z2/FcozuqpYlqmE2y307cWWnDOxvdbTduAquo/UhNqseCMasBFRgpNtxW9VdYsffdmSJSqFiYud7kd4KM2WtZhLCNELZ3vK3nbiKNLwMI5UjZsiPPvpIP44fP65fY4UQnkFwDG3Ci3Nno2A/kDNnPu6+81p0PDcDM2YW4MCwPIyv2ILD/gbsve1BPK8VPA7HGtz1xwb439yAuXPnYm+TA3Fz78OClMO4Z+YMFDxdho6R4+H/8yas2bIXNYOzkNO4BLvq/Dj81F1YgzjNzTjg3qW49outmjuazP445BVceYZfMq+cafjxHCXFA0+K/gMe/Yf21+uF1+vRfmlnk/ORz3P9nhOZ83gvH5kuygzHVP088KxTe9arPZs/2Rl41hOQDZzHBjv5gmlbJT+b2HHbjixR9Xd/DTNlVeXt1tF2vped7005O9/MLPcHsVCmtqTyMn44tnBVPiADwFaPagVEd6kdqnxAyqlotYTf6cSJE8qJhmFWlTXjSsXf/M70t0o8071PP/3UdlypYLZeVONKNX0ShllVlu5G2upia4ktHipFJq2trXpacbn02jQ8He1o0/40fN6hNRkdiB8MtJ/gDU0JYgeQg7+7IV5Tkr5s1yQ0qZq38fYnKZieezVyLv4IjV11Yg3VXtxOlzUZOqS1Vs/wy+Dz9XvnLHUlqNHUG+dkF2pK6jSNKA2p+o0ELd74pwVv+Hzw8Z5Lu1Ou/fbtQ6vWQiXVJdp5cbP2rBOpYwPXnAlmfFdjnyZbVBH4vl2hWgkwbdop9+2UgXbKEjtlIOWYL1XCTBmGWdXfdsPM+FKNKztloN06WjWuWF8w3CphpnvRqqMH8WUqASB2ZIlK4E0oq+o2ZVXdppu95W8739uOLOmtMFNW1W262Vv+tvK92ZVMt9iVbsJuYg7NqWTyDb+vQvrCbSgs3In5Q0vh27gXVe8nImfDiq4Nqwt92Nueg/WFhdj2wDLkXaJdG5qE9CvmIn2oX3/kcF0HMm5ZhUX6mcavtqMqbTG2bS7EzpviUfrsn4wbA4c6pCE/oVUfKnMmJAQumrQ0o9X4idZaYAp7jGbC1UalR7t36qYLw0P14JZWXdGMFXbyhpW03Rl28lVP5cnOUP1epLf83V/DbPd7RcvfstWIIMQQ9g5FYoPEnqIRI0bodkdsLZpDbsG9StbIQI4HKC2pMs4jw31FDtwflqKsXjtJzkbOyAaUvs5+pa7J8OQAJaWw5lI/xJWJ/HlToPf11BYHeoZ6GQ6B0M6ErV5BEKKLKEiCEEMiVZAIlaSLL75Y7z1qaWmxoRwJAwVRkAQhdoiCJAgxxIqCRPgsh9zYeyQI3SEKkiDEDlkoUhD6EKZxoiAIgtC7iIIkCIIgCIIQgihIgiAIgiAIIYiCJAiCIAiCEIIoSIIgCIIgCCHILDZBiCGcxWbOZBOEaGOuVCyz2AQh+oiCJAgxhMoRN4tUXa5fELqDU/1FQRKE6CMKkiDEELMHKdJ92QTBClxUlOtmiYIkCNFnEBcZY/c/WyFWYeZk4c+/KlCW7qsQFxenLEs5yquEmTL0NwslFeyEmfGkGlf0L8OsEld0j70gvRFmyqmGuS/ElSDEEtWy18xXKvJ9odxXKQ8op1rum2FWLUtYfqqWB2Zc2fG3xFXkMK7MMA+iJ1Q/Pj2g6hG6N2zYMNsJzs7HV0k0dhMcNyRVDTP9zEMFM65U/W1XQVKNK8qpxpXdMDN9qhYOZpgFoS9ipyxhflLNk8ROuc98ZacMtONvloG9IUs/90YdTaJRR6tgp47md7IbV2aYB8fHxz9E+wiV3W9pHMjdxlV2HCeUi3QLhlBMWZUdfymjGmZiN8x0W9XfdsIcDX+rQFm7caXqbzuyTB80glWBsgwzMxozu6ofBKE7WBFYTadMn6plIPMk5VTTtFkeqEC37ZaBKmEmdsoSylFe1d924opu2/G3alz1VphJtOJKbJAEIYaw9cZDbJCEWEDliEq42CAJQvRR64MSBGHgcP9GbLzf+C0IgjBAEAVJEPoI7A2YOHEirrrqKn3svyfwrtuGtbcZJ12h94IZv8ORvBLbClcYJ4IgCP0bGWIThBgS6RAblaMrrrgCc+bM0c/feust7Ny5EydPntTPu+ZCeJ/YimVZ8cDnDdj1UAHevnEjCtxJcHe8inVtU7R7ScCJajz/b08C31+JaxNpr/I2NrzoxLLbJwP+MmyZ40P8ppXIS9H82vQaNvxwK9If087dDjSeaEfHgdkoeDjgool74WqsXTgRDsSh8Y/bUZ1dgLwR7Sgp/Ff84+N7jKf6Aa4UpKAOda3GuXbmmedC+Y5KtBlXIiUlRXtTXZ1xZoGz/BAZMsQmCLFjsNPpfMj4LQhClKGBdndG2px1kZ2djby8PP03jxEjRsDlcqGmpkY3GOySsdPw6C0JWJ53OzZ8lY6vO6pxIuMOTHzve5j70tV4dN4QlO4/hOrzv45Zl8ThjXeK8fKrxzEqKwfu/7kJh9y34sTmW/DgNf+Gf76kAcWv/hknR87AN66+BJedfBHf+tu7UDflNnyzw4ctxYabBhlTpuCLP+3Bm+eNQ+7EFix87gRuTa6A90fPGE/0A1yZyJ83DRMmZCEroQUVranInz8NI44fQVltG1I8XuR7tHtZWUhoqcBXUwLn/F3bpilS3nx4shLQUlELl/ZsbtZY7dk0fFV7BJ9NyMf8a65EGo7iiOMqePM9+nvozlHXTP1eFmVrnZgZ7Idal/HerIDs8a6Va6YVFSNtQRC6R4bYBKGXYQ/TzJkzjbPTXHbZZfqQW1jOH4S4L9vRoP1sqHkbb1fzYhMa39GuxDsQd6IBZa8cwIFdm7DplS8xPfdq5Fz8ERpDO6aGOoCWGhzQnt2z3YfCj7Tz9kD/SfsXnVfQ7qnTMStX81+jH/3WBL21EkXF5Sjf4YOvpC5w7vv/27u/l7bOMA7gD1bUmB+emMCIrK5euY3UDlp2sayBebMNutuNERjoGLR/wa4GhV71j9jNQApeRToYuypE3NUGsxWGY+Cos6A3Ng429cad70le0DNic76vMXP9fkC7E/Pmfc77nPOex3iW96GtPm///Plq+POGNb5dtd3Rsr012Xp48srl8PumLTeeYsuwubkctnvcsIWw/VozZ5Ov5aLn5oKx8Ptu2Ef4Og332hvWWAj7bOzamMViwOuG/a02Fuzhk6TvYYnIWVGBJNJneAdgYyOqbE7Y3t62ra2t9lYHv/1qjw4q9vXiotW/umMfvNl+HBYX7NHfN+zO3LzdnvvYZrK7YSFUtKnrH9pU6s/oKY83D236k/s2982SrZfet9ufzdvntXfs9e/D7SvzVn9Qt3tvF21ocCJ6/knDli3N2Hszhdbm8ro9K1Ts3hfvtrYvirAGmbpVs9qtsrVKmg7+WrOfUQ+Fnv4eFjJ496naqpiCAC33rBlUrVar2c3LY5ZHXdTRlFXD59WqeWviz2rHY4je1bpm16o1++jqqRGJSA/pHiSRHur2HiT8OW12dtbK5XK0jeKoXq/bzs5OtP0iE9crNrG9Yj/+0X7gmBM/e/WGVV55Zis/4T2nf5u+WQkLnRVbd9tvTNv6L9ias/sPwsKq9XBow7779Ev7IfZ86U7uatnGnqwZcbfSCboHSaR3VCCJ9FC3BRK4IqlYLNrS0lLXxZG8vFQgifSOCiSRHkpSIAE+mh8XvP39/fYjIp2pQBLpHd2DJPIfgo/1V3EkItJ/KpBEREREYgbc564w3GdwsHz6Rr8+cbNtoV99+7ZVrpLx6ds3bpFe8j22+3Ve+fbrMwf69N3Peeii5optC2fV90Amk7FsNhv9HTupoaGh6MZS/JsUAhgfH7eRkZH2I8nkcjlLp9PUIKRSqWif8QF+SaENu8+AfUb/DOQKX0h+UrgPBmOGe1ySQn+IG6/BwHhh6QwmV2jXr1wVCgXvXGE1arZ/kRfBOXnqB4l2gLkTxycz72MOwXnFzCWA84qd9zEXsPM++mTnEoxTEAT0HIi27PJB2F/fazSTq7O6RjPXK8y7aO8z77O5wj67XF0KB/4uTrDTPun3NGiH+yZYPvdb4MZXXICSOjo6iiYVZp/RFl/YZ/zL8Nln9MvGjXbMZAoY525vNI5D3/ik3/POFfjkCm3YXGFywT4jdkxSeC0mBpFOcMHExavZbCYuGNx5wZ6TaMfO+z7nFbBzCbBzCcYX7XzmEsyfbFufOdDFzerHNRoQM7PPGC984ThhxhvcEk/6v9hEzoH7LY4tUEWOc7+V7+3t6ZgS6REVSCLnBBc15m1ykTj8Vo7CiPlTk4h0RwWSiIiISAx/S7+IiIjI/5QKJBEREZEYFUgiIiIiMSqQRERERGJUIImIiIjEqEASERERiVGBJCIiIhKjAklEREQkRgWSiIiISIwKJBEREZGYS6VS6e7w8HC0rk/SlW+xSnk6nY7WBUq6Yi/WEAqCIPpvZrHFbDZrg4ODVFusgJ1Kpai4sZYWFh7FWDErDefz+Wjfmbgx1r65QsxMrhA3u8+5XI7OFfLE5gp94jjpR64ymUy0OC36TZor5Hh0dJTaZ5crYOLGsY1jnGmLmHFuMfvcz1yhX3YhYTeXIO6kucLafBhvYPrG/InXYFZqd3MJkyuMFcaMOT7B5/h0cwkTN3KFYxRtk8btO+/75Aoxs/M+coW5iMkVzqeX/Ro9gG9IWtKBBwSOtswAoD/XNwM7fnh4SMeNtkkHHtAfYmbjRjv0zfDZZxc3c8AA+mXyDOjz4OCAzhXi9skVG7dPrnzOK4yXb67YuNGvT9zo9yLmim3rcsXEjX32zZVv3Gyu0C97fKJffDHcPvscn0zcGCe09Y2b4XLF7LPPeYW2bh5juPFm4nbj7TOXsHGjXStXZv8A2AZRY31GPzIAAAAASUVORK5CYII=;" vertex="1" parent="1">
                    <mxGeometry x="122" y="40" width="584" height="480" as="geometry"/>
                </mxCell>
            </root>
        </mxGraphModel>
    </diagram>
</mxfile>